<?xml version="1.0" encoding="UTF-8" standalone="no"?><svg xmlns="http://www.w3.org/2000/svg" xmlns:xlink="http://www.w3.org/1999/xlink" contentScriptType="application/ecmascript" contentStyleType="text/css" height="727px" preserveAspectRatio="none" style="width:907px;height:727px;background:#FFFFFF;" version="1.1" viewBox="0 0 907 727" width="907px" zoomAndPan="magnify"><defs><filter height="300%" id="fl5205vxvfjdq" width="300%" x="-1" y="-1"><feGaussianBlur result="blurOut" stdDeviation="2.0"/><feColorMatrix in="blurOut" result="blurOut2" type="matrix" values="0 0 0 0 0 0 0 0 0 0 0 0 0 0 0 0 0 0 .4 0"/><feOffset dx="4.0" dy="4.0" in="blurOut2" result="blurOut3"/><feBlend in="SourceGraphic" in2="blurOut3" mode="normal"/></filter></defs><g><!--MD5=[82e865073170c2da8a76a939041dabe8]
cluster commands--><polygon fill="#FFFFFF" filter="url(#fl5205vxvfjdq)" points="219.5,6,300.5,6,307.5,29.6094,890.5,29.6094,890.5,120,219.5,120,219.5,6" style="stroke:#000000;stroke-width:1.5;"/><line style="stroke:#000000;stroke-width:1.5;" x1="219.5" x2="307.5" y1="29.6094" y2="29.6094"/><text fill="#000000" font-family="sans-serif" font-size="14" font-weight="bold" lengthAdjust="spacing" textLength="75" x="223.5" y="22.5332">commands</text><!--MD5=[662be95c8683717ba8d307de7235e698]
cluster select--><polygon fill="#FFFFFF" filter="url(#fl5205vxvfjdq)" points="310.5,153,359.5,153,366.5,176.6094,566.5,176.6094,566.5,720,310.5,720,310.5,153" style="stroke:#000000;stroke-width:1.5;"/><line style="stroke:#000000;stroke-width:1.5;" x1="310.5" x2="366.5" y1="176.6094" y2="176.6094"/><text fill="#000000" font-family="sans-serif" font-size="14" font-weight="bold" lengthAdjust="spacing" textLength="43" x="314.5" y="169.5332">select</text><!--MD5=[8496a2cbcc03cee18c840253f99ddb81]
class SelectCommand--><rect codeLine="4" fill="#FEFECE" filter="url(#fl5205vxvfjdq)" height="61.8359" id="SelectCommand" style="stroke:#A80036;stroke-width:1.5;" width="158" x="716.5" y="42"/><ellipse cx="741.4" cy="58" fill="#B4A7E5" rx="11" ry="11" style="stroke:#A80036;stroke-width:1.0;"/><path d="M742.4,55 L742.4,61 L744.4,61 L744.8844,61 L745.4,61.625 L745.4,62 L745.4,62.375 L744.8844,63 L744.4,63 L738.4,63 L737.9156,63 L737.4,62.375 L737.4,62 L737.4,61.625 L737.9156,61 L738.4,61 L740.4,61 L740.4,55 L738.4,55 L737.9156,55 L737.4,54.375 L737.4,54 L737.4,53.625 L737.9156,53 L738.4,53 L744.4,53 L744.8844,53 L745.4,53.625 L745.4,54 L745.4,54.375 L744.8844,55 L744.4,55 L742.4,55 Z " fill="#000000"/><text fill="#000000" font-family="sans-serif" font-size="12" font-style="italic" lengthAdjust="spacing" textLength="93" x="757.6" y="62.9102">SelectCommand</text><rect fill="#FFFFFF" height="17.0938" style="stroke:#000000;stroke-width:1.0;stroke-dasharray:2.0,2.0;" width="9" x="868.5" y="39"/><text fill="#000000" font-family="sans-serif" font-size="12" font-style="italic" lengthAdjust="spacing" textLength="7" x="869.5" y="52.457">T</text><line style="stroke:#A80036;stroke-width:1.5;" x1="717.5" x2="873.5" y1="74" y2="74"/><line style="stroke:#A80036;stroke-width:1.5;" x1="717.5" x2="873.5" y1="82" y2="82"/><ellipse cx="727.5" cy="93" fill="#84BE84" rx="3" ry="3" style="stroke:#038048;stroke-width:1.0;"/><text fill="#000000" font-family="sans-serif" font-size="11" lengthAdjust="spacing" textLength="132" x="736.5" y="97.4189">select(columns: String...): T</text><!--MD5=[5e396c04da69ec67ae87b07cdc3432bc]
class FromCommand--><rect codeLine="8" fill="#FEFECE" filter="url(#fl5205vxvfjdq)" height="61.8359" id="FromCommand" style="stroke:#A80036;stroke-width:1.5;" width="131" x="360" y="42"/><ellipse cx="375" cy="58" fill="#B4A7E5" rx="11" ry="11" style="stroke:#A80036;stroke-width:1.0;"/><path d="M376,55 L376,61 L378,61 L378.4844,61 L379,61.625 L379,62 L379,62.375 L378.4844,63 L378,63 L372,63 L371.5156,63 L371,62.375 L371,62 L371,61.625 L371.5156,61 L372,61 L374,61 L374,55 L372,55 L371.5156,55 L371,54.375 L371,54 L371,53.625 L371.5156,53 L372,53 L378,53 L378.4844,53 L379,53.625 L379,54 L379,54.375 L378.4844,55 L378,55 L376,55 Z " fill="#000000"/><text fill="#000000" font-family="sans-serif" font-size="12" font-style="italic" lengthAdjust="spacing" textLength="88" x="389" y="62.9102">FromCommand</text><rect fill="#FFFFFF" height="17.0938" style="stroke:#000000;stroke-width:1.0;stroke-dasharray:2.0,2.0;" width="9" x="485" y="39"/><text fill="#000000" font-family="sans-serif" font-size="12" font-style="italic" lengthAdjust="spacing" textLength="7" x="486" y="52.457">T</text><line style="stroke:#A80036;stroke-width:1.5;" x1="361" x2="490" y1="74" y2="74"/><line style="stroke:#A80036;stroke-width:1.5;" x1="361" x2="490" y1="82" y2="82"/><ellipse cx="371" cy="93" fill="#84BE84" rx="3" ry="3" style="stroke:#038048;stroke-width:1.0;"/><text fill="#000000" font-family="sans-serif" font-size="11" lengthAdjust="spacing" textLength="99" x="380" y="97.4189">from(table: String): T</text><!--MD5=[dae5f736ee9e5b1414b2f590e4402a0b]
class WhereCommand--><rect codeLine="12" fill="#FEFECE" filter="url(#fl5205vxvfjdq)" height="61.8359" id="WhereCommand" style="stroke:#A80036;stroke-width:1.5;" width="155" x="526" y="42"/><ellipse cx="548.65" cy="58" fill="#B4A7E5" rx="11" ry="11" style="stroke:#A80036;stroke-width:1.0;"/><path d="M549.65,55 L549.65,61 L551.65,61 L552.1344,61 L552.65,61.625 L552.65,62 L552.65,62.375 L552.1344,63 L551.65,63 L545.65,63 L545.1656,63 L544.65,62.375 L544.65,62 L544.65,61.625 L545.1656,61 L545.65,61 L547.65,61 L547.65,55 L545.65,55 L545.1656,55 L544.65,54.375 L544.65,54 L544.65,53.625 L545.1656,53 L545.65,53 L551.65,53 L552.1344,53 L552.65,53.625 L552.65,54 L552.65,54.375 L552.1344,55 L551.65,55 L549.65,55 Z " fill="#000000"/><text fill="#000000" font-family="sans-serif" font-size="12" font-style="italic" lengthAdjust="spacing" textLength="95" x="564.35" y="62.9102">WhereCommand</text><rect fill="#FFFFFF" height="17.0938" style="stroke:#000000;stroke-width:1.0;stroke-dasharray:2.0,2.0;" width="9" x="675" y="39"/><text fill="#000000" font-family="sans-serif" font-size="12" font-style="italic" lengthAdjust="spacing" textLength="7" x="676" y="52.457">T</text><line style="stroke:#A80036;stroke-width:1.5;" x1="527" x2="680" y1="74" y2="74"/><line style="stroke:#A80036;stroke-width:1.5;" x1="527" x2="680" y1="82" y2="82"/><ellipse cx="537" cy="93" fill="#84BE84" rx="3" ry="3" style="stroke:#038048;stroke-width:1.0;"/><text fill="#000000" font-family="sans-serif" font-size="11" lengthAdjust="spacing" textLength="129" x="546" y="97.4189">where(condition: String): T</text><path d="M236,60 L236,86.3516 L325,86.3516 L325,70 L315,60 L236,60 " fill="#FBFB77" filter="url(#fl5205vxvfjdq)" style="stroke:#A80036;stroke-width:1.0;"/><path d="M315,60 L315,70 L325,70 L315,60 " fill="#FBFB77" style="stroke:#A80036;stroke-width:1.0;"/><text fill="#000000" font-family="sans-serif" font-size="13" lengthAdjust="spacing" textLength="68" x="242" y="78.4951">to complete</text><!--MD5=[d20b284c4665a10287baf4da791f1117]
class SelectQuery--><rect codeLine="20" fill="#FEFECE" filter="url(#fl5205vxvfjdq)" height="48" id="SelectQuery" style="stroke:#A80036;stroke-width:1.5;" width="99" x="451" y="189"/><ellipse cx="466" cy="205" fill="#B4A7E5" rx="11" ry="11" style="stroke:#A80036;stroke-width:1.0;"/><path d="M467,202 L467,208 L469,208 L469.4844,208 L470,208.625 L470,209 L470,209.375 L469.4844,210 L469,210 L463,210 L462.5156,210 L462,209.375 L462,209 L462,208.625 L462.5156,208 L463,208 L465,208 L465,202 L463,202 L462.5156,202 L462,201.375 L462,201 L462,200.625 L462.5156,200 L463,200 L469,200 L469.4844,200 L470,200.625 L470,201 L470,201.375 L469.4844,202 L469,202 L467,202 Z " fill="#000000"/><text fill="#000000" font-family="sans-serif" font-size="12" font-style="italic" lengthAdjust="spacing" textLength="67" x="480" y="209.9102">SelectQuery</text><line style="stroke:#A80036;stroke-width:1.5;" x1="452" x2="549" y1="221" y2="221"/><line style="stroke:#A80036;stroke-width:1.5;" x1="452" x2="549" y1="229" y2="229"/><!--MD5=[69d9f00317153276d57e7ba856e4716d]
class FromQuery--><rect codeLine="21" fill="#FEFECE" filter="url(#fl5205vxvfjdq)" height="48" id="FromQuery" style="stroke:#A80036;stroke-width:1.5;" width="94" x="455.5" y="298"/><ellipse cx="470.5" cy="314" fill="#B4A7E5" rx="11" ry="11" style="stroke:#A80036;stroke-width:1.0;"/><path d="M471.5,311 L471.5,317 L473.5,317 L473.9844,317 L474.5,317.625 L474.5,318 L474.5,318.375 L473.9844,319 L473.5,319 L467.5,319 L467.0156,319 L466.5,318.375 L466.5,318 L466.5,317.625 L467.0156,317 L467.5,317 L469.5,317 L469.5,311 L467.5,311 L467.0156,311 L466.5,310.375 L466.5,310 L466.5,309.625 L467.0156,309 L467.5,309 L473.5,309 L473.9844,309 L474.5,309.625 L474.5,310 L474.5,310.375 L473.9844,311 L473.5,311 L471.5,311 Z " fill="#000000"/><text fill="#000000" font-family="sans-serif" font-size="12" font-style="italic" lengthAdjust="spacing" textLength="62" x="484.5" y="318.9102">FromQuery</text><line style="stroke:#A80036;stroke-width:1.5;" x1="456.5" x2="548.5" y1="330" y2="330"/><line style="stroke:#A80036;stroke-width:1.5;" x1="456.5" x2="548.5" y1="338" y2="338"/><!--MD5=[81aaafaa421fdcc3dbd41471d1ac41da]
class SqlQuery--><rect codeLine="31" fill="#FEFECE" filter="url(#fl5205vxvfjdq)" height="61.8359" id="SqlQuery" style="stroke:#A80036;stroke-width:1.5;" width="90" x="386.5" y="407"/><ellipse cx="404.65" cy="423" fill="#B4A7E5" rx="11" ry="11" style="stroke:#A80036;stroke-width:1.0;"/><path d="M405.65,420 L405.65,426 L407.65,426 L408.1344,426 L408.65,426.625 L408.65,427 L408.65,427.375 L408.1344,428 L407.65,428 L401.65,428 L401.1656,428 L400.65,427.375 L400.65,427 L400.65,426.625 L401.1656,426 L401.65,426 L403.65,426 L403.65,420 L401.65,420 L401.1656,420 L400.65,419.375 L400.65,419 L400.65,418.625 L401.1656,418 L401.65,418 L407.65,418 L408.1344,418 L408.65,418.625 L408.65,419 L408.65,419.375 L408.1344,420 L407.65,420 L405.65,420 Z " fill="#000000"/><text fill="#000000" font-family="sans-serif" font-size="12" font-style="italic" lengthAdjust="spacing" textLength="51" x="419.35" y="427.9102">SqlQuery</text><line style="stroke:#A80036;stroke-width:1.5;" x1="387.5" x2="475.5" y1="439" y2="439"/><line style="stroke:#A80036;stroke-width:1.5;" x1="387.5" x2="475.5" y1="447" y2="447"/><ellipse cx="397.5" cy="458" fill="#84BE84" rx="3" ry="3" style="stroke:#038048;stroke-width:1.0;"/><text fill="#000000" font-family="sans-serif" font-size="11" lengthAdjust="spacing" textLength="64" x="406.5" y="462.4189">build(): String</text><!--MD5=[bcfdaaaebfca1ae821c2ccea70848fcb]
class WhereQuery--><rect codeLine="22" fill="#FEFECE" filter="url(#fl5205vxvfjdq)" height="48" id="WhereQuery" style="stroke:#A80036;stroke-width:1.5;" width="101" x="412" y="530"/><ellipse cx="427" cy="546" fill="#B4A7E5" rx="11" ry="11" style="stroke:#A80036;stroke-width:1.0;"/><path d="M428,543 L428,549 L430,549 L430.4844,549 L431,549.625 L431,550 L431,550.375 L430.4844,551 L430,551 L424,551 L423.5156,551 L423,550.375 L423,550 L423,549.625 L423.5156,549 L424,549 L426,549 L426,543 L424,543 L423.5156,543 L423,542.375 L423,542 L423,541.625 L423.5156,541 L424,541 L430,541 L430.4844,541 L431,541.625 L431,542 L431,542.375 L430.4844,543 L430,543 L428,543 Z " fill="#000000"/><text fill="#000000" font-family="sans-serif" font-size="12" font-style="italic" lengthAdjust="spacing" textLength="69" x="441" y="550.9102">WhereQuery</text><line style="stroke:#A80036;stroke-width:1.5;" x1="413" x2="512" y1="562" y2="562"/><line style="stroke:#A80036;stroke-width:1.5;" x1="413" x2="512" y1="570" y2="570"/><!--MD5=[8319fef28745a37d69513ce2a56d0fd0]
class SelectQueryBuilder--><rect codeLine="24" fill="#FEFECE" filter="url(#fl5205vxvfjdq)" height="48" id="SelectQueryBuilder" style="stroke:#A80036;stroke-width:1.5;" width="137" x="404" y="656"/><ellipse cx="419" cy="672" fill="#ADD1B2" rx="11" ry="11" style="stroke:#A80036;stroke-width:1.0;"/><path d="M421,668.5 Q421.2031,668 421.4375,667.75 Q421.6719,667.5 421.9375,667.5 Q422.4063,667.5 422.7031,667.7813 Q423,668.0625 423,668.7188 L423,670.2813 Q423,670.9375 422.7188,671.2188 Q422.4375,671.5 422,671.5 Q421.6094,671.5 421.3594,671.3281 Q421.1094,671.1563 421,670.7031 Q420.9531,670.3906 420.7813,670.2188 Q420.4688,669.8906 419.9063,669.7031 Q419.3438,669.5 418.7813,669.5 Q418.0781,669.5 417.4844,669.7813 Q416.9063,670.0625 416.4531,670.6875 Q416,671.3125 416,672.1719 L416,673.0938 Q416,674.125 416.8438,674.8125 Q417.6875,675.5 419.1875,675.5 Q420.0781,675.5 420.7031,675.2969 Q421.0625,675.1875 421.4688,674.8281 Q421.7344,674.625 421.875,674.5625 Q422.0156,674.5 422.1875,674.5 Q422.5156,674.5 422.75,674.7656 Q423,675.0156 423,675.375 Q423,675.7188 422.6563,676.125 Q422.1563,676.7188 421.3594,677.0469 Q420.3125,677.5 419.0313,677.5 Q417.5313,677.5 416.3281,676.9063 Q415.3594,676.4375 414.6719,675.4219 Q414,674.4063 414,673.2031 L414,672.1094 Q414,670.8594 414.5938,669.7656 Q415.2031,668.6719 416.25,668.0938 Q417.3125,667.5 418.5,667.5 Q419.2188,667.5 419.8438,667.75 Q420.4688,668 421,668.5 Z " fill="#000000"/><text fill="#000000" font-family="sans-serif" font-size="12" lengthAdjust="spacing" textLength="105" x="433" y="676.9102">SelectQueryBuilder</text><line style="stroke:#A80036;stroke-width:1.5;" x1="405" x2="540" y1="688" y2="688"/><line style="stroke:#A80036;stroke-width:1.5;" x1="405" x2="540" y1="696" y2="696"/><path d="M327,200 L327,226.3516 L416,226.3516 L416,210 L406,200 L327,200 " fill="#FBFB77" filter="url(#fl5205vxvfjdq)" style="stroke:#A80036;stroke-width:1.0;"/><path d="M406,200 L406,210 L416,210 L406,200 " fill="#FBFB77" style="stroke:#A80036;stroke-width:1.0;"/><text fill="#000000" font-family="sans-serif" font-size="13" lengthAdjust="spacing" textLength="68" x="333" y="218.4951">to complete</text><path d="M6,60 L6,86.3516 L201,86.3516 L201,70 L191,60 L6,60 " fill="#FBFB77" filter="url(#fl5205vxvfjdq)" style="stroke:#A80036;stroke-width:1.0;"/><path d="M191,60 L191,70 L201,70 L191,60 " fill="#FBFB77" style="stroke:#A80036;stroke-width:1.0;"/><text fill="#000000" font-family="sans-serif" font-size="13" lengthAdjust="spacing" textLength="174" x="12" y="78.4951">Same for every possible query</text><!--MD5=[73c5eb411cf4e85a2b27107eb04483d4]
class SqlBuilder--><rect codeLine="35" fill="#FEFECE" filter="url(#fl5205vxvfjdq)" height="48" id="SqlBuilder" style="stroke:#A80036;stroke-width:1.5;" width="89" x="654" y="530"/><ellipse cx="669" cy="546" fill="#ADD1B2" rx="11" ry="11" style="stroke:#A80036;stroke-width:1.0;"/><path d="M671,542.5 Q671.2031,542 671.4375,541.75 Q671.6719,541.5 671.9375,541.5 Q672.4063,541.5 672.7031,541.7813 Q673,542.0625 673,542.7188 L673,544.2813 Q673,544.9375 672.7188,545.2188 Q672.4375,545.5 672,545.5 Q671.6094,545.5 671.3594,545.3281 Q671.1094,545.1563 671,544.7031 Q670.9531,544.3906 670.7813,544.2188 Q670.4688,543.8906 669.9063,543.7031 Q669.3438,543.5 668.7813,543.5 Q668.0781,543.5 667.4844,543.7813 Q666.9063,544.0625 666.4531,544.6875 Q666,545.3125 666,546.1719 L666,547.0938 Q666,548.125 666.8438,548.8125 Q667.6875,549.5 669.1875,549.5 Q670.0781,549.5 670.7031,549.2969 Q671.0625,549.1875 671.4688,548.8281 Q671.7344,548.625 671.875,548.5625 Q672.0156,548.5 672.1875,548.5 Q672.5156,548.5 672.75,548.7656 Q673,549.0156 673,549.375 Q673,549.7188 672.6563,550.125 Q672.1563,550.7188 671.3594,551.0469 Q670.3125,551.5 669.0313,551.5 Q667.5313,551.5 666.3281,550.9063 Q665.3594,550.4375 664.6719,549.4219 Q664,548.4063 664,547.2031 L664,546.1094 Q664,544.8594 664.5938,543.7656 Q665.2031,542.6719 666.25,542.0938 Q667.3125,541.5 668.5,541.5 Q669.2188,541.5 669.8438,541.75 Q670.4688,542 671,542.5 Z " fill="#000000"/><text fill="#000000" font-family="sans-serif" font-size="12" lengthAdjust="spacing" textLength="57" x="683" y="550.9102">SqlBuilder</text><line style="stroke:#A80036;stroke-width:1.5;" x1="655" x2="742" y1="562" y2="562"/><line style="stroke:#A80036;stroke-width:1.5;" x1="655" x2="742" y1="570" y2="570"/><!--MD5=[b2d31de53b09e11ada1a3605b7da1c3f]
reverse link FromCommand to SelectQuery--><path d="M451.69,122.19 C463.93,144.71 477.94,170.48 487.8,188.63 " fill="none" id="FromCommand-backto-SelectQuery" style="stroke:#A80036;stroke-width:1.0;"/><polygon fill="none" points="445.36,125.2,441.96,104.28,457.66,118.51,445.36,125.2" style="stroke:#A80036;stroke-width:1.0;"/><!--MD5=[2d0f82f71e1f2d807d0b56d77eeb7f46]
reverse link WhereCommand to FromQuery--><path d="M598.22,124.22 C593.35,157.42 584.24,201.26 567.5,237 C556.86,259.71 539.18,282 524.95,297.9 " fill="none" id="WhereCommand-backto-FromQuery" style="stroke:#A80036;stroke-width:1.0;"/><polygon fill="none" points="591.32,123.04,600.85,104.12,605.2,124.86,591.32,123.04" style="stroke:#A80036;stroke-width:1.0;"/><!--MD5=[82b6d94df1366f39f91f68647e0b1f48]
reverse link SqlQuery to FromQuery--><path d="M474.01,390.12 C484.05,374.92 493.39,358.74 499.23,346.07 " fill="none" id="SqlQuery-backto-FromQuery" style="stroke:#A80036;stroke-width:1.0;"/><polygon fill="none" points="479.7,394.2,462.52,406.61,468.21,386.2,479.7,394.2" style="stroke:#A80036;stroke-width:1.0;"/><!--MD5=[c21f87f60de7a5dcdcde99aad669a5f2]
link FromQuery to SqlQuery--><path codeLine="40" d="M477.65,346.07 C465.18,362.14 451.18,383.88 441.4,402.07 " fill="none" id="FromQuery-to-SqlQuery" style="stroke:#A80036;stroke-width:1.0;"/><polygon fill="#A80036" points="439,406.61,446.7371,400.5159,441.3329,402.1876,439.6612,396.7834,439,406.61" style="stroke:#A80036;stroke-width:1.0;"/><!--MD5=[2bd19c886501d77272f5320e6056959d]
reverse link SqlQuery to WhereQuery--><path d="M432.48,489.19 C435.99,503.36 440.73,518.11 445.71,529.84 " fill="none" id="SqlQuery-backto-WhereQuery" style="stroke:#A80036;stroke-width:1.0;"/><polygon fill="none" points="425.55,490.26,428.32,469.25,439.26,487.4,425.55,490.26" style="stroke:#A80036;stroke-width:1.0;"/><!--MD5=[6721f28f7bd0a91a2dacfd0a42388501]
link WhereQuery to SqlQuery--><path codeLine="39" d="M467.31,529.84 C465.55,513.87 460.19,492.35 453.67,474.25 " fill="none" id="WhereQuery-to-SqlQuery" style="stroke:#A80036;stroke-width:1.0;"/><polygon fill="#A80036" points="451.81,469.25,451.2248,479.0815,453.5656,473.9316,458.7154,476.2725,451.81,469.25" style="stroke:#A80036;stroke-width:1.0;"/><!--MD5=[7baa6e11470f52481ce332f84aa72101]
reverse link FromQuery to SelectQueryBuilder--><path d="M516.54,365.51 C531.33,416.72 549.98,504.98 530.5,578 C522.79,606.92 504.61,636.15 490.64,655.68 " fill="none" id="FromQuery-backto-SelectQueryBuilder" style="stroke:#A80036;stroke-width:1.0;stroke-dasharray:7.0,7.0;"/><polygon fill="none" points="509.82,367.46,510.66,346.29,523.21,363.36,509.82,367.46" style="stroke:#A80036;stroke-width:1.0;"/><!--MD5=[838a55e86296c36abf37b4fd83f0a96f]
reverse link WhereQuery to SelectQueryBuilder--><path d="M465.99,598.23 C467.54,617.54 469.32,639.52 470.62,655.67 " fill="none" id="WhereQuery-backto-SelectQueryBuilder" style="stroke:#A80036;stroke-width:1.0;stroke-dasharray:7.0,7.0;"/><polygon fill="none" points="458.99,598.53,464.36,578.03,472.94,597.41,458.99,598.53" style="stroke:#A80036;stroke-width:1.0;"/><!--MD5=[cbb04e877ec4a3fb2868a7304534747e]
reverse link SqlQuery to SelectQueryBuilder--><path d="M404.58,487.39 C393.08,514.34 384.38,548.33 394.5,578 C404.87,608.4 428.52,636.77 447.07,655.65 " fill="none" id="SqlQuery-backto-SelectQueryBuilder" style="stroke:#A80036;stroke-width:1.0;stroke-dasharray:7.0,7.0;"/><polygon fill="none" points="398.32,484.25,413.22,469.18,410.97,490.25,398.32,484.25" style="stroke:#A80036;stroke-width:1.0;"/><!--MD5=[950c2e6d7280db550e465a164917062c]
reverse link SelectCommand to SqlBuilder--><path d="M762.97,121.38 C748.42,147.03 734.5,179.96 734.5,212 C734.5,212 734.5,212 734.5,439 C734.5,471.59 720.96,507.08 710.49,529.66 " fill="none" id="SelectCommand-backto-SqlBuilder" style="stroke:#A80036;stroke-width:1.0;stroke-dasharray:7.0,7.0;"/><polygon fill="none" points="757.1,117.56,773.48,104.11,769.06,124.83,757.1,117.56" style="stroke:#A80036;stroke-width:1.0;"/><!--MD5=[5bea0c1099c63c80e1f895ab26fa22b6]
link SqlBuilder to SelectQueryBuilder--><path codeLine="37" d="M656.52,578.03 C617.64,599.37 559.88,631.06 519.48,653.23 " fill="none" id="SqlBuilder-to-SelectQueryBuilder" style="stroke:#A80036;stroke-width:1.0;stroke-dasharray:7.0,7.0;"/><polygon fill="#A80036" points="514.64,655.88,524.4554,655.0685,519.0262,653.4797,520.6149,648.0506,514.64,655.88" style="stroke:#A80036;stroke-width:1.0;"/><text fill="#000000" font-family="sans-serif" font-size="13" lengthAdjust="spacing" textLength="57" x="599.5" y="622.4951">«creates»</text><!--MD5=[96c6e0191b512c95f795e116094416ca]
link FromQuery to WhereQuery--><path codeLine="41" d="M503.41,346.05 C504.07,375.07 503.57,426.29 494.5,469 C490.41,488.23 482.6,508.87 475.72,524.88 " fill="none" id="FromQuery-to-WhereQuery" style="stroke:#A80036;stroke-width:1.0;"/><polygon fill="#A80036" points="473.62,529.7,480.8844,523.0495,475.6188,525.1169,473.5515,519.8514,473.62,529.7" style="stroke:#A80036;stroke-width:1.0;"/><!--MD5=[dc31ba903c88b772371abc211f310e86]
link SelectQuery to FromQuery--><path codeLine="42" d="M500.93,237.22 C501.24,253.48 501.65,275.32 501.97,292.62 " fill="none" id="SelectQuery-to-FromQuery" style="stroke:#A80036;stroke-width:1.0;"/><polygon fill="#A80036" points="502.07,297.83,505.9151,288.7628,501.9843,292.8307,497.9163,288.8999,502.07,297.83" style="stroke:#A80036;stroke-width:1.0;"/><!--MD5=[a92d049035df3adb36af814463001ad5]
@startuml
'https://plantuml.com/class-diagram

package commands {
    interface SelectCommand<T> {
        +select(columns: String...): T
    }

    interface FromCommand<T> {
        +from(table: String): T
    }

    interface WhereCommand<T> {
       +where(condition: String): T
    }

    note "to complete" as N1
}

package select {
    interface SelectQuery implements FromCommand
    interface FromQuery implements WhereCommand, SqlQuery
    interface WhereQuery implements SqlQuery

    class SelectQueryBuilder implements FromQuery, WhereQuery, SqlQuery

    note "to complete" as N2
}

note "Same for every possible query" as N3

interface SqlQuery {
    +build(): String
}

class SqlBuilder implements SelectCommand

SqlBuilder ..> SelectQueryBuilder: <<creates>>

WhereQuery - -> SqlQuery
FromQuery - -> SqlQuery
FromQuery - -> WhereQuery
SelectQuery - -> FromQuery

@enduml

@startuml

package commands {
    interface SelectCommand<T> {
        +select(columns: String...): T
    }

    interface FromCommand<T> {
        +from(table: String): T
    }

    interface WhereCommand<T> {
       +where(condition: String): T
    }

    note "to complete" as N1
}

package select {
    interface SelectQuery implements FromCommand
    interface FromQuery implements WhereCommand, SqlQuery
    interface WhereQuery implements SqlQuery

    class SelectQueryBuilder implements FromQuery, WhereQuery, SqlQuery

    note "to complete" as N2
}

note "Same for every possible query" as N3

interface SqlQuery {
    +build(): String
}

class SqlBuilder implements SelectCommand

SqlBuilder ..> SelectQueryBuilder: <<creates>>

WhereQuery - -> SqlQuery
FromQuery - -> SqlQuery
FromQuery - -> WhereQuery
SelectQuery - -> FromQuery

@enduml

PlantUML version 1.2022.0(Tue Jan 11 11:16:42 EST 2022)
(GPL source distribution)
Java Runtime: OpenJDK Runtime Environment
JVM: OpenJDK 64-Bit Server VM
Default Encoding: Cp1252
Language: fr
Country: FR
--></g></svg>