<?xml version="1.0" encoding="UTF-8" standalone="no"?><svg xmlns="http://www.w3.org/2000/svg" xmlns:xlink="http://www.w3.org/1999/xlink" contentScriptType="application/ecmascript" contentStyleType="text/css" height="599.2px" preserveAspectRatio="none" style="width:1030px;height:599px;background:#FFFFFF;" version="1.1" viewBox="0 0 1030 599" width="1030.4px" zoomAndPan="magnify"><defs><filter height="300%" id="f1dbkwkbm69twm" width="300%" x="-1" y="-1"><feGaussianBlur result="blurOut" stdDeviation="1.6000000000000003"/><feColorMatrix in="blurOut" result="blurOut2" type="matrix" values="0 0 0 0 0 0 0 0 0 0 0 0 0 0 0 0 0 0 .4 0"/><feOffset dx="3.2000000000000006" dy="3.2000000000000006" in="blurOut2" result="blurOut3"/><feBlend in="SourceGraphic" in2="blurOut3" mode="normal"/></filter></defs><g><!--MD5=[82e865073170c2da8a76a939041dabe8]
cluster commands--><polygon fill="#FFFFFF" filter="url(#f1dbkwkbm69twm)" points="416,4.8,480.8,4.8,486.4,23.6875,1016.8,23.6875,1016.8,107.2,416,107.2,416,4.8" style="stroke:#000000;stroke-width:1.2000000000000002;"/><line style="stroke:#000000;stroke-width:1.2000000000000002;" x1="416" x2="486.4" y1="23.6875" y2="23.6875"/><text fill="#000000" font-family="sans-serif" font-size="11.2" font-weight="bold" lengthAdjust="spacing" textLength="60" x="419.2" y="18.0266">commands</text><!--MD5=[662be95c8683717ba8d307de7235e698]
cluster select--><polygon fill="#FFFFFF" filter="url(#f1dbkwkbm69twm)" points="12.8,10.4,52,10.4,57.6,29.2875,396.8,29.2875,396.8,593.6,12.8,593.6,12.8,10.4" style="stroke:#000000;stroke-width:1.2000000000000002;"/><line style="stroke:#000000;stroke-width:1.2000000000000002;" x1="12.8" x2="57.6" y1="29.2875" y2="29.2875"/><text fill="#000000" font-family="sans-serif" font-size="11.2" font-weight="bold" lengthAdjust="spacing" textLength="34.4" x="16" y="23.6266">select</text><!--MD5=[dae5f736ee9e5b1414b2f590e4402a0b]
class WhereCommand--><rect codeLine="7" fill="#FEFECE" filter="url(#f1dbkwkbm69twm)" height="49.4688" id="WhereCommand" style="stroke:#A80036;stroke-width:1.2000000000000002;" width="124" x="748.4" y="39.2"/><ellipse cx="766.52" cy="52" fill="#B4A7E5" rx="8.8" ry="8.8" style="stroke:#A80036;stroke-width:0.8000000000000002;"/><path d="M767.32,49.6 L767.32,54.4 L768.92,54.4 L769.3075,54.4 L769.72,54.9 L769.72,55.2 L769.72,55.5 L769.3075,56 L768.92,56 L764.12,56 L763.7325,56 L763.32,55.5 L763.32,55.2 L763.32,54.9 L763.7325,54.4 L764.12,54.4 L765.72,54.4 L765.72,49.6 L764.12,49.6 L763.7325,49.6 L763.32,49.1 L763.32,48.8 L763.32,48.5 L763.7325,48 L764.12,48 L768.92,48 L769.3075,48 L769.72,48.5 L769.72,48.8 L769.72,49.1 L769.3075,49.6 L768.92,49.6 L767.32,49.6 Z " fill="#000000"/><text fill="#000000" font-family="sans-serif" font-size="9.6" font-style="italic" lengthAdjust="spacing" textLength="76" x="779.08" y="55.9281">WhereCommand</text><rect fill="#FFFFFF" height="13.675" style="stroke:#000000;stroke-width:0.8000000000000002;stroke-dasharray:2.0,2.0;" width="7.2" x="867.6" y="36.8"/><text fill="#000000" font-family="sans-serif" font-size="9.6" font-style="italic" lengthAdjust="spacing" textLength="5.6" x="868.4" y="47.5656">T</text><line style="stroke:#A80036;stroke-width:1.2000000000000002;" x1="749.2" x2="871.6" y1="64.8" y2="64.8"/><line style="stroke:#A80036;stroke-width:1.2000000000000002;" x1="749.2" x2="871.6" y1="71.2" y2="71.2"/><ellipse cx="757.2" cy="80" fill="#84BE84" rx="2.4" ry="2.4" style="stroke:#038048;stroke-width:0.8000000000000002;"/><text fill="#000000" font-family="sans-serif" font-size="8.8" lengthAdjust="spacing" textLength="103.2" x="764.4" y="83.5352">where(condition: String): T</text><!--MD5=[f3eaf387f3560fa02d15c3c687f1bd0e]
class LimitCommand--><rect codeLine="11" fill="#FEFECE" filter="url(#f1dbkwkbm69twm)" height="49.4688" id="LimitCommand" style="stroke:#A80036;stroke-width:1.2000000000000002;" width="103.2" x="900.4" y="39.2"/><ellipse cx="912.4" cy="52" fill="#B4A7E5" rx="8.8" ry="8.8" style="stroke:#A80036;stroke-width:0.8000000000000002;"/><path d="M913.2,49.6 L913.2,54.4 L914.8,54.4 L915.1875,54.4 L915.6,54.9 L915.6,55.2 L915.6,55.5 L915.1875,56 L914.8,56 L910,56 L909.6125,56 L909.2,55.5 L909.2,55.2 L909.2,54.9 L909.6125,54.4 L910,54.4 L911.6,54.4 L911.6,49.6 L910,49.6 L909.6125,49.6 L909.2,49.1 L909.2,48.8 L909.2,48.5 L909.6125,48 L910,48 L914.8,48 L915.1875,48 L915.6,48.5 L915.6,48.8 L915.6,49.1 L915.1875,49.6 L914.8,49.6 L913.2,49.6 Z " fill="#000000"/><text fill="#000000" font-family="sans-serif" font-size="9.6" font-style="italic" lengthAdjust="spacing" textLength="68.8" x="923.6" y="55.9281">LimitCommand</text><rect fill="#FFFFFF" height="13.675" style="stroke:#000000;stroke-width:0.8000000000000002;stroke-dasharray:2.0,2.0;" width="7.2" x="998.8" y="36.8"/><text fill="#000000" font-family="sans-serif" font-size="9.6" font-style="italic" lengthAdjust="spacing" textLength="5.6" x="999.6" y="47.5656">T</text><line style="stroke:#A80036;stroke-width:1.2000000000000002;" x1="901.2" x2="1002.8" y1="64.8" y2="64.8"/><line style="stroke:#A80036;stroke-width:1.2000000000000002;" x1="901.2" x2="1002.8" y1="71.2" y2="71.2"/><ellipse cx="909.2" cy="80" fill="#84BE84" rx="2.4" ry="2.4" style="stroke:#038048;stroke-width:0.8000000000000002;"/><text fill="#000000" font-family="sans-serif" font-size="8.8" lengthAdjust="spacing" textLength="74.4" x="916.4" y="83.5352">limit(limit: Integer): T</text><!--MD5=[23f2bb0a3fcac3974b259a18e4526c65]
class OrderByCommand--><rect codeLine="15" fill="#FEFECE" filter="url(#f1dbkwkbm69twm)" height="60.5375" id="OrderByCommand" style="stroke:#A80036;stroke-width:1.2000000000000002;" width="183.2" x="429.2" y="33.6"/><ellipse cx="471.4" cy="46.4" fill="#B4A7E5" rx="8.8" ry="8.8" style="stroke:#A80036;stroke-width:0.8000000000000002;"/><path d="M472.2,44 L472.2,48.8 L473.8,48.8 L474.1875,48.8 L474.6,49.3 L474.6,49.6 L474.6,49.9 L474.1875,50.4 L473.8,50.4 L469,50.4 L468.6125,50.4 L468.2,49.9 L468.2,49.6 L468.2,49.3 L468.6125,48.8 L469,48.8 L470.6,48.8 L470.6,44 L469,44 L468.6125,44 L468.2,43.5 L468.2,43.2 L468.2,42.9 L468.6125,42.4 L469,42.4 L473.8,42.4 L474.1875,42.4 L474.6,42.9 L474.6,43.2 L474.6,43.5 L474.1875,44 L473.8,44 L472.2,44 Z " fill="#000000"/><text fill="#000000" font-family="sans-serif" font-size="9.6" font-style="italic" lengthAdjust="spacing" textLength="83.2" x="487.8" y="50.3281">OrderByCommand</text><rect fill="#FFFFFF" height="13.675" style="stroke:#000000;stroke-width:0.8000000000000002;stroke-dasharray:2.0,2.0;" width="7.2" x="607.6" y="31.2"/><text fill="#000000" font-family="sans-serif" font-size="9.6" font-style="italic" lengthAdjust="spacing" textLength="5.6" x="608.4" y="41.9656">T</text><line style="stroke:#A80036;stroke-width:1.2000000000000002;" x1="430" x2="611.6" y1="59.2" y2="59.2"/><line style="stroke:#A80036;stroke-width:1.2000000000000002;" x1="430" x2="611.6" y1="65.6" y2="65.6"/><ellipse cx="438" cy="74.4" fill="#84BE84" rx="2.4" ry="2.4" style="stroke:#038048;stroke-width:0.8000000000000002;"/><text fill="#000000" font-family="sans-serif" font-size="8.8" lengthAdjust="spacing" textLength="106.4" x="445.2" y="77.9352">orderBy(columns: String): T</text><ellipse cx="438" cy="85.4688" fill="#84BE84" rx="2.4" ry="2.4" style="stroke:#038048;stroke-width:0.8000000000000002;"/><text fill="#000000" font-family="sans-serif" font-size="8.8" lengthAdjust="spacing" textLength="162.4" x="445.2" y="89.0039">orderBy((columns: String, order: Order): T</text><!--MD5=[cf4d6237fcae255cd2e1656cf84a30e2]
class Order--><rect codeLine="21" fill="#FEFECE" filter="url(#f1dbkwkbm69twm)" height="60.5375" id="Order" style="stroke:#A80036;stroke-width:1.2000000000000002;" width="50.4" x="670" y="33.6"/><ellipse cx="682" cy="46.4" fill="#EB937F" rx="8.8" ry="8.8" style="stroke:#A80036;stroke-width:0.8000000000000002;"/><path d="M680.8,47.2 L680.8,48.8 L684,48.8 L684,48 L684,47.6125 L684.5,47.2 L684.8,47.2 L685.1,47.2 L685.6,47.6125 L685.6,48 L685.6,50.4 L679.2,50.4 L678.8125,50.4 L678.4,49.9 L678.4,49.6 L678.4,49.3 L678.8125,48.8 L679.2,48.8 L679.2,48.8 L679.2,44 L679.2,44 L678.8125,44 L678.4,43.5 L678.4,43.2 L678.4,42.9 L678.8125,42.4 L679.2,42.4 L685.6,42.4 L685.6,44.8 L685.6,45.1875 L685.1,45.6 L684.8,45.6 L684.5,45.6 L684,45.1875 L684,44.8 L684,44 L680.8,44 L680.8,45.6 L681.6,45.6 L681.6,45.2125 L681.6,45.2125 L682.1,44.8 L682.4,44.8 L682.7,44.8 L683.2,45.2125 L683.2,45.6 L683.2,47.2 L683.2,47.5875 L682.7,48 L682.7,48 L682.4,48 L682.1,48 L681.6,47.5875 L681.6,47.5875 L681.6,47.2 L680.8,47.2 Z " fill="#000000"/><text fill="#000000" font-family="sans-serif" font-size="9.6" lengthAdjust="spacing" textLength="24.8" x="693.2" y="50.3281">Order</text><line style="stroke:#A80036;stroke-width:1.2000000000000002;" x1="670.8" x2="719.6" y1="59.2" y2="59.2"/><text fill="#000000" font-family="sans-serif" font-size="8.8" lengthAdjust="spacing" textLength="20" x="674.8" y="71.5352">ASC,</text><text fill="#000000" font-family="sans-serif" font-size="8.8" lengthAdjust="spacing" textLength="21.6" x="674.8" y="82.6039">DESC</text><line style="stroke:#A80036;stroke-width:1.2000000000000002;" x1="670.8" x2="719.6" y1="87.7375" y2="87.7375"/><!--MD5=[69d9f00317153276d57e7ba856e4716d]
class FromQuery--><rect codeLine="28" fill="#FEFECE" filter="url(#f1dbkwkbm69twm)" height="38.4" id="FromQuery" style="stroke:#A80036;stroke-width:1.2000000000000002;" width="75.2" x="221.6" y="144.8"/><ellipse cx="233.6" cy="157.6" fill="#B4A7E5" rx="8.8" ry="8.8" style="stroke:#A80036;stroke-width:0.8000000000000002;"/><path d="M234.4,155.2 L234.4,160 L236,160 L236.3875,160 L236.8,160.5 L236.8,160.8 L236.8,161.1 L236.3875,161.6 L236,161.6 L231.2,161.6 L230.8125,161.6 L230.4,161.1 L230.4,160.8 L230.4,160.5 L230.8125,160 L231.2,160 L232.8,160 L232.8,155.2 L231.2,155.2 L230.8125,155.2 L230.4,154.7 L230.4,154.4 L230.4,154.1 L230.8125,153.6 L231.2,153.6 L236,153.6 L236.3875,153.6 L236.8,154.1 L236.8,154.4 L236.8,154.7 L236.3875,155.2 L236,155.2 L234.4,155.2 Z " fill="#000000"/><text fill="#000000" font-family="sans-serif" font-size="9.6" font-style="italic" lengthAdjust="spacing" textLength="49.6" x="244.8" y="161.5281">FromQuery</text><line style="stroke:#A80036;stroke-width:1.2000000000000002;" x1="222.4" x2="296" y1="170.4" y2="170.4"/><line style="stroke:#A80036;stroke-width:1.2000000000000002;" x1="222.4" x2="296" y1="176.8" y2="176.8"/><!--MD5=[81aaafaa421fdcc3dbd41471d1ac41da]
class SqlQuery--><rect codeLine="50" fill="#FEFECE" filter="url(#f1dbkwkbm69twm)" height="49.4688" id="SqlQuery" style="stroke:#A80036;stroke-width:1.2000000000000002;" width="72" x="191.2" y="232"/><ellipse cx="205.72" cy="244.8" fill="#B4A7E5" rx="8.8" ry="8.8" style="stroke:#A80036;stroke-width:0.8000000000000002;"/><path d="M206.52,242.4 L206.52,247.2 L208.12,247.2 L208.5075,247.2 L208.92,247.7 L208.92,248 L208.92,248.3 L208.5075,248.8 L208.12,248.8 L203.32,248.8 L202.9325,248.8 L202.52,248.3 L202.52,248 L202.52,247.7 L202.9325,247.2 L203.32,247.2 L204.92,247.2 L204.92,242.4 L203.32,242.4 L202.9325,242.4 L202.52,241.9 L202.52,241.6 L202.52,241.3 L202.9325,240.8 L203.32,240.8 L208.12,240.8 L208.5075,240.8 L208.92,241.3 L208.92,241.6 L208.92,241.9 L208.5075,242.4 L208.12,242.4 L206.52,242.4 Z " fill="#000000"/><text fill="#000000" font-family="sans-serif" font-size="9.6" font-style="italic" lengthAdjust="spacing" textLength="40.8" x="217.48" y="248.7281">SqlQuery</text><line style="stroke:#A80036;stroke-width:1.2000000000000002;" x1="192" x2="262.4" y1="257.6" y2="257.6"/><line style="stroke:#A80036;stroke-width:1.2000000000000002;" x1="192" x2="262.4" y1="264" y2="264"/><ellipse cx="200" cy="272.8" fill="#84BE84" rx="2.4" ry="2.4" style="stroke:#038048;stroke-width:0.8000000000000002;"/><text fill="#000000" font-family="sans-serif" font-size="8.8" lengthAdjust="spacing" textLength="51.2" x="207.2" y="276.3352">build(): String</text><!--MD5=[558660f5a8827b97e346c9f15de2ea51]
class LimitQuery--><rect codeLine="29" fill="#FEFECE" filter="url(#f1dbkwkbm69twm)" height="38.4" id="LimitQuery" style="stroke:#A80036;stroke-width:1.2000000000000002;" width="73.6" x="84.8" y="336"/><ellipse cx="96.8" cy="348.8" fill="#B4A7E5" rx="8.8" ry="8.8" style="stroke:#A80036;stroke-width:0.8000000000000002;"/><path d="M97.6,346.4 L97.6,351.2 L99.2,351.2 L99.5875,351.2 L100,351.7 L100,352 L100,352.3 L99.5875,352.8 L99.2,352.8 L94.4,352.8 L94.0125,352.8 L93.6,352.3 L93.6,352 L93.6,351.7 L94.0125,351.2 L94.4,351.2 L96,351.2 L96,346.4 L94.4,346.4 L94.0125,346.4 L93.6,345.9 L93.6,345.6 L93.6,345.3 L94.0125,344.8 L94.4,344.8 L99.2,344.8 L99.5875,344.8 L100,345.3 L100,345.6 L100,345.9 L99.5875,346.4 L99.2,346.4 L97.6,346.4 Z " fill="#000000"/><text fill="#000000" font-family="sans-serif" font-size="9.6" font-style="italic" lengthAdjust="spacing" textLength="48" x="108" y="352.7281">LimitQuery</text><line style="stroke:#A80036;stroke-width:1.2000000000000002;" x1="85.6" x2="157.6" y1="361.6" y2="361.6"/><line style="stroke:#A80036;stroke-width:1.2000000000000002;" x1="85.6" x2="157.6" y1="368" y2="368"/><!--MD5=[77e1057b3a39a3e2cf291031ebe1d460]
class OrderByQuery--><rect codeLine="30" fill="#FEFECE" filter="url(#f1dbkwkbm69twm)" height="38.4" id="OrderByQuery" style="stroke:#A80036;stroke-width:1.2000000000000002;" width="88" x="296" y="336"/><ellipse cx="308" cy="348.8" fill="#B4A7E5" rx="8.8" ry="8.8" style="stroke:#A80036;stroke-width:0.8000000000000002;"/><path d="M308.8,346.4 L308.8,351.2 L310.4,351.2 L310.7875,351.2 L311.2,351.7 L311.2,352 L311.2,352.3 L310.7875,352.8 L310.4,352.8 L305.6,352.8 L305.2125,352.8 L304.8,352.3 L304.8,352 L304.8,351.7 L305.2125,351.2 L305.6,351.2 L307.2,351.2 L307.2,346.4 L305.6,346.4 L305.2125,346.4 L304.8,345.9 L304.8,345.6 L304.8,345.3 L305.2125,344.8 L305.6,344.8 L310.4,344.8 L310.7875,344.8 L311.2,345.3 L311.2,345.6 L311.2,345.9 L310.7875,346.4 L310.4,346.4 L308.8,346.4 Z " fill="#000000"/><text fill="#000000" font-family="sans-serif" font-size="9.6" font-style="italic" lengthAdjust="spacing" textLength="62.4" x="319.2" y="352.7281">OrderByQuery</text><line style="stroke:#A80036;stroke-width:1.2000000000000002;" x1="296.8" x2="383.2" y1="361.6" y2="361.6"/><line style="stroke:#A80036;stroke-width:1.2000000000000002;" x1="296.8" x2="383.2" y1="368" y2="368"/><!--MD5=[d20b284c4665a10287baf4da791f1117]
class SelectQuery--><rect codeLine="31" fill="#FEFECE" filter="url(#f1dbkwkbm69twm)" height="49.4688" id="SelectQuery" style="stroke:#A80036;stroke-width:1.2000000000000002;" width="138.4" x="99.6" y="39.2"/><ellipse cx="138.6" cy="52" fill="#B4A7E5" rx="8.8" ry="8.8" style="stroke:#A80036;stroke-width:0.8000000000000002;"/><path d="M139.4,49.6 L139.4,54.4 L141,54.4 L141.3875,54.4 L141.8,54.9 L141.8,55.2 L141.8,55.5 L141.3875,56 L141,56 L136.2,56 L135.8125,56 L135.4,55.5 L135.4,55.2 L135.4,54.9 L135.8125,54.4 L136.2,54.4 L137.8,54.4 L137.8,49.6 L136.2,49.6 L135.8125,49.6 L135.4,49.1 L135.4,48.8 L135.4,48.5 L135.8125,48 L136.2,48 L141,48 L141.3875,48 L141.8,48.5 L141.8,48.8 L141.8,49.1 L141.3875,49.6 L141,49.6 L139.4,49.6 Z " fill="#000000"/><text fill="#000000" font-family="sans-serif" font-size="9.6" font-style="italic" lengthAdjust="spacing" textLength="53.6" x="155" y="55.9281">SelectQuery</text><line style="stroke:#A80036;stroke-width:1.2000000000000002;" x1="100.4" x2="237.2" y1="64.8" y2="64.8"/><line style="stroke:#A80036;stroke-width:1.2000000000000002;" x1="100.4" x2="237.2" y1="71.2" y2="71.2"/><ellipse cx="108.4" cy="80" fill="#84BE84" rx="2.4" ry="2.4" style="stroke:#038048;stroke-width:0.8000000000000002;"/><text fill="#000000" font-family="sans-serif" font-size="8.8" lengthAdjust="spacing" textLength="117.6" x="115.6" y="83.5352">from(table: String): FromQuery</text><!--MD5=[8319fef28745a37d69513ce2a56d0fd0]
class SelectQueryBuilder--><rect codeLine="35" fill="#FEFECE" filter="url(#f1dbkwkbm69twm)" height="138.0188" id="SelectQueryBuilder" style="stroke:#A80036;stroke-width:1.2000000000000002;" width="271.2" x="58.8" y="442.4"/><ellipse cx="149" cy="455.2" fill="#ADD1B2" rx="8.8" ry="8.8" style="stroke:#A80036;stroke-width:0.8000000000000002;"/><path d="M150.6,452.4 Q150.7625,452 150.95,451.8 Q151.1375,451.6 151.35,451.6 Q151.725,451.6 151.9625,451.825 Q152.2,452.05 152.2,452.575 L152.2,453.825 Q152.2,454.35 151.975,454.575 Q151.75,454.8 151.4,454.8 Q151.0875,454.8 150.8875,454.6625 Q150.6875,454.525 150.6,454.1625 Q150.5625,453.9125 150.425,453.775 Q150.175,453.5125 149.725,453.3625 Q149.275,453.2 148.825,453.2 Q148.2625,453.2 147.7875,453.425 Q147.325,453.65 146.9625,454.15 Q146.6,454.65 146.6,455.3375 L146.6,456.075 Q146.6,456.9 147.275,457.45 Q147.95,458 149.15,458 Q149.8625,458 150.3625,457.8375 Q150.65,457.75 150.975,457.4625 Q151.1875,457.3 151.3,457.25 Q151.4125,457.2 151.55,457.2 Q151.8125,457.2 152,457.4125 Q152.2,457.6125 152.2,457.9 Q152.2,458.175 151.925,458.5 Q151.525,458.975 150.8875,459.2375 Q150.05,459.6 149.025,459.6 Q147.825,459.6 146.8625,459.125 Q146.0875,458.75 145.5375,457.9375 Q145,457.125 145,456.1625 L145,455.2875 Q145,454.2875 145.475,453.4125 Q145.9625,452.5375 146.8,452.075 Q147.65,451.6 148.6,451.6 Q149.175,451.6 149.675,451.8 Q150.175,452 150.6,452.4 Z " fill="#000000"/><text fill="#000000" font-family="sans-serif" font-size="9.6" lengthAdjust="spacing" textLength="84" x="165.4" y="459.1281">SelectQueryBuilder</text><line style="stroke:#A80036;stroke-width:1.2000000000000002;" x1="59.6" x2="329.2" y1="468" y2="468"/><rect fill="none" height="4.8" style="stroke:#C82930;stroke-width:0.8000000000000002;" width="4.8" x="65.2" y="474.4"/><text fill="#000000" font-family="sans-serif" font-size="8.8" lengthAdjust="spacing" textLength="120.8" x="74.8" y="480.3352">builder: StringBuilder{readOnly}</text><rect fill="none" height="4.8" style="stroke:#C82930;stroke-width:0.8000000000000002;" width="4.8" x="65.2" y="485.4688"/><text fill="#000000" font-family="sans-serif" font-size="8.8" lengthAdjust="spacing" textLength="76" x="74.8" y="491.4039">hasWhere: Boolean</text><line style="stroke:#A80036;stroke-width:1.2000000000000002;" x1="59.6" x2="329.2" y1="496.5375" y2="496.5375"/><ellipse cx="67.6" cy="505.3375" fill="#84BE84" rx="2.4" ry="2.4" style="stroke:#038048;stroke-width:0.8000000000000002;"/><text fill="#000000" font-family="sans-serif" font-size="8.8" lengthAdjust="spacing" textLength="147.2" x="74.8" y="508.8727">SelectQueryBuilder(columns: String...)</text><ellipse cx="67.6" cy="516.4063" fill="#84BE84" rx="2.4" ry="2.4" style="stroke:#038048;stroke-width:0.8000000000000002;"/><text fill="#000000" font-family="sans-serif" font-size="8.8" lengthAdjust="spacing" textLength="161.6" x="74.8" y="519.9414">from(table: String): FromQuery «override»</text><ellipse cx="67.6" cy="527.475" fill="#84BE84" rx="2.4" ry="2.4" style="stroke:#038048;stroke-width:0.8000000000000002;"/><text fill="#000000" font-family="sans-serif" font-size="8.8" lengthAdjust="spacing" textLength="95.2" x="74.8" y="531.0102">build(): String «override»</text><ellipse cx="67.6" cy="538.5438" fill="#84BE84" rx="2.4" ry="2.4" style="stroke:#038048;stroke-width:0.8000000000000002;"/><text fill="#000000" font-family="sans-serif" font-size="8.8" lengthAdjust="spacing" textLength="154.4" x="74.8" y="542.0789">limit(limit: Integer): LimitQuery «override»</text><ellipse cx="67.6" cy="549.6125" fill="#84BE84" rx="2.4" ry="2.4" style="stroke:#038048;stroke-width:0.8000000000000002;"/><text fill="#000000" font-family="sans-serif" font-size="8.8" lengthAdjust="spacing" textLength="197.6" x="74.8" y="553.1477">orderBy(column: String): OrderByQuery «override»</text><ellipse cx="67.6" cy="560.6813" fill="#84BE84" rx="2.4" ry="2.4" style="stroke:#038048;stroke-width:0.8000000000000002;"/><text fill="#000000" font-family="sans-serif" font-size="8.8" lengthAdjust="spacing" textLength="250.4" x="74.8" y="564.2164">orderBy(column: String, order: Order): OrderByQuery «override»</text><ellipse cx="67.6" cy="571.75" fill="#84BE84" rx="2.4" ry="2.4" style="stroke:#038048;stroke-width:0.8000000000000002;"/><text fill="#000000" font-family="sans-serif" font-size="8.8" lengthAdjust="spacing" textLength="192" x="74.8" y="575.2852">where(condition: String): WhereQuery «override»</text><!--MD5=[bcfdaaaebfca1ae821c2ccea70848fcb]
class WhereQuery--><rect codeLine="47" fill="#FEFECE" filter="url(#f1dbkwkbm69twm)" height="38.4" id="WhereQuery" style="stroke:#A80036;stroke-width:1.2000000000000002;" width="80.8" x="186.8" y="336"/><ellipse cx="198.8" cy="348.8" fill="#B4A7E5" rx="8.8" ry="8.8" style="stroke:#A80036;stroke-width:0.8000000000000002;"/><path d="M199.6,346.4 L199.6,351.2 L201.2,351.2 L201.5875,351.2 L202,351.7 L202,352 L202,352.3 L201.5875,352.8 L201.2,352.8 L196.4,352.8 L196.0125,352.8 L195.6,352.3 L195.6,352 L195.6,351.7 L196.0125,351.2 L196.4,351.2 L198,351.2 L198,346.4 L196.4,346.4 L196.0125,346.4 L195.6,345.9 L195.6,345.6 L195.6,345.3 L196.0125,344.8 L196.4,344.8 L201.2,344.8 L201.5875,344.8 L202,345.3 L202,345.6 L202,345.9 L201.5875,346.4 L201.2,346.4 L199.6,346.4 Z " fill="#000000"/><text fill="#000000" font-family="sans-serif" font-size="9.6" font-style="italic" lengthAdjust="spacing" textLength="55.2" x="210" y="352.7281">WhereQuery</text><line style="stroke:#A80036;stroke-width:1.2000000000000002;" x1="187.6" x2="266.8" y1="361.6" y2="361.6"/><line style="stroke:#A80036;stroke-width:1.2000000000000002;" x1="187.6" x2="266.8" y1="368" y2="368"/><!--MD5=[73c5eb411cf4e85a2b27107eb04483d4]
class SqlBuilder--><rect codeLine="54" fill="#FEFECE" filter="url(#f1dbkwkbm69twm)" height="49.4688" id="SqlBuilder" style="stroke:#A80036;stroke-width:1.2000000000000002;" width="169.6" x="412" y="330.4"/><ellipse cx="470.6" cy="343.2" fill="#ADD1B2" rx="8.8" ry="8.8" style="stroke:#A80036;stroke-width:0.8000000000000002;"/><path d="M472.2,340.4 Q472.3625,340 472.55,339.8 Q472.7375,339.6 472.95,339.6 Q473.325,339.6 473.5625,339.825 Q473.8,340.05 473.8,340.575 L473.8,341.825 Q473.8,342.35 473.575,342.575 Q473.35,342.8 473,342.8 Q472.6875,342.8 472.4875,342.6625 Q472.2875,342.525 472.2,342.1625 Q472.1625,341.9125 472.025,341.775 Q471.775,341.5125 471.325,341.3625 Q470.875,341.2 470.425,341.2 Q469.8625,341.2 469.3875,341.425 Q468.925,341.65 468.5625,342.15 Q468.2,342.65 468.2,343.3375 L468.2,344.075 Q468.2,344.9 468.875,345.45 Q469.55,346 470.75,346 Q471.4625,346 471.9625,345.8375 Q472.25,345.75 472.575,345.4625 Q472.7875,345.3 472.9,345.25 Q473.0125,345.2 473.15,345.2 Q473.4125,345.2 473.6,345.4125 Q473.8,345.6125 473.8,345.9 Q473.8,346.175 473.525,346.5 Q473.125,346.975 472.4875,347.2375 Q471.65,347.6 470.625,347.6 Q469.425,347.6 468.4625,347.125 Q467.6875,346.75 467.1375,345.9375 Q466.6,345.125 466.6,344.1625 L466.6,343.2875 Q466.6,342.2875 467.075,341.4125 Q467.5625,340.5375 468.4,340.075 Q469.25,339.6 470.2,339.6 Q470.775,339.6 471.275,339.8 Q471.775,340 472.2,340.4 Z " fill="#000000"/><text fill="#000000" font-family="sans-serif" font-size="9.6" lengthAdjust="spacing" textLength="45.6" x="487" y="347.1281">SqlBuilder</text><line style="stroke:#A80036;stroke-width:1.2000000000000002;" x1="412.8" x2="580.8" y1="356" y2="356"/><line style="stroke:#A80036;stroke-width:1.2000000000000002;" x1="412.8" x2="580.8" y1="362.4" y2="362.4"/><ellipse cx="420.8" cy="371.2" fill="#84BE84" rx="2.4" ry="2.4" style="stroke:#038048;stroke-width:0.8000000000000002;"/><text fill="#000000" font-family="sans-serif" font-size="8.8" lengthAdjust="spacing" text-decoration="underline" textLength="148.8" x="428" y="374.7352">select(columns: String...): SelectQuery</text><!--MD5=[5c404e7eaadb009a17c35a54505d3bc7]
link OrderByCommand to Order--><path codeLine="19" d="M612.6,64 C628.52,64 644.232,64 657.608,64 " fill="none" id="OrderByCommand-to-Order" style="stroke:#A80036;stroke-width:0.8000000000000002;"/><ellipse cx="663.256" cy="64" fill="#FFFFFF" rx="6.4" ry="6.4" style="stroke:#A80036;stroke-width:0.8000000000000002;"/><line style="stroke:#A80036;stroke-width:0.8000000000000002;" x1="656.856" x2="669.656" y1="64" y2="64"/><line style="stroke:#A80036;stroke-width:0.8000000000000002;" x1="663.256" x2="663.256" y1="57.6" y2="70.4"/><text fill="#000000" font-family="sans-serif" font-size="10.4" lengthAdjust="spacing" textLength="28" x="627.2" y="58.7961">«has»</text><!--MD5=[2d0f82f71e1f2d807d0b56d77eeb7f46]
reverse link WhereCommand to FromQuery--><path d="M766.416,97.88 C756.344,104.048 745.36,109.752 734.4,113.6 C713.808,120.824 405.784,149.704 296.944,159.744 " fill="none" id="WhereCommand-backto-FromQuery" style="stroke:#A80036;stroke-width:0.8000000000000002;"/><polygon fill="none" points="763.504,93.088,779.952,89,769.648,102.456,763.504,93.088" style="stroke:#A80036;stroke-width:0.8000000000000002;"/><!--MD5=[11a78acd4da6c71978effe4eb7c87f28]
reverse link OrderByCommand to FromQuery--><path d="M440.152,100.272 C425.928,105.448 411.096,110.176 396.8,113.6 C367.624,120.584 358.056,110.488 329.6,120 C313.008,125.544 296.24,135.616 283.232,144.64 " fill="none" id="OrderByCommand-backto-FromQuery" style="stroke:#A80036;stroke-width:0.8000000000000002;"/><polygon fill="none" points="438.352,94.968,455.296,94.52,442.328,105.44,438.352,94.968" style="stroke:#A80036;stroke-width:0.8000000000000002;"/><!--MD5=[2aeb8efa3cb7eb32bf8c26273bcd4669]
reverse link LimitCommand to FromQuery--><path d="M913.64,98.792 C905.168,104.672 895.88,110.04 886.4,113.6 C831.28,134.304 424.048,155.32 296.968,161.432 " fill="none" id="LimitCommand-backto-FromQuery" style="stroke:#A80036;stroke-width:0.8000000000000002;"/><polygon fill="none" points="910.456,94.168,926.592,88.96,917.232,103.088,910.456,94.168" style="stroke:#A80036;stroke-width:0.8000000000000002;"/><!--MD5=[82b6d94df1366f39f91f68647e0b1f48]
reverse link SqlQuery to FromQuery--><path d="M251.616,216.92 C256.072,205.232 259.768,192.952 261.6,183.256 " fill="none" id="SqlQuery-backto-FromQuery" style="stroke:#A80036;stroke-width:0.8000000000000002;"/><polygon fill="none" points="256.768,219.104,245.408,231.688,246.44,214.768,256.768,219.104" style="stroke:#A80036;stroke-width:0.8000000000000002;"/><!--MD5=[c21f87f60de7a5dcdcde99aad669a5f2]
link FromQuery to SqlQuery--><path codeLine="65" d="M244.336,183.256 C237.912,196.008 231.504,213.208 227.616,227.68 " fill="none" id="FromQuery-to-SqlQuery" style="stroke:#A80036;stroke-width:0.8000000000000002;"/><polygon fill="#A80036" points="226.592,231.688,231.477,225.506,227.5836,227.8129,225.2767,223.9195,226.592,231.688" style="stroke:#A80036;stroke-width:0.8000000000000002;"/><!--MD5=[41f6e494c43a92c390975e7d70a4726b]
reverse link SqlQuery to LimitQuery--><path d="M188.824,292.784 C172.848,307.416 154.976,323.808 141.672,336 " fill="none" id="SqlQuery-backto-LimitQuery" style="stroke:#A80036;stroke-width:0.8000000000000002;"/><polygon fill="none" points="185.248,288.464,200.824,281.776,192.816,296.72,185.248,288.464" style="stroke:#A80036;stroke-width:0.8000000000000002;"/><!--MD5=[5a13149b6a7f38b04942a41a5b90d0d3]
reverse link LimitCommand to OrderByQuery--><path d="M956.872,105.288 C960.96,160.216 958.704,257.144 900.8,306.4 C858.232,342.608 452.952,318.272 398.4,330.4 C392.304,331.76 386.024,333.696 379.944,335.896 " fill="none" id="LimitCommand-backto-OrderByQuery" style="stroke:#A80036;stroke-width:0.8000000000000002;"/><polygon fill="none" points="951.272,105.488,955.392,89.04,962.424,104.464,951.272,105.488" style="stroke:#A80036;stroke-width:0.8000000000000002;"/><!--MD5=[10a9c1f44a282ad15b0b6e79c290c8a9]
reverse link SelectQuery to SelectQueryBuilder--><path d="M84.68,91.048 C53.872,106.32 26.4,129.408 26.4,163.2 C26.4,163.2 26.4,163.2 26.4,356 C26.4,390.408 45.688,419.272 71.2,442.392 " fill="none" id="SelectQuery-backto-SelectQueryBuilder" style="stroke:#A80036;stroke-width:0.8000000000000002;stroke-dasharray:7.0,7.0;"/><polygon fill="none" points="82.592,85.848,99.48,84.368,87.2,96.056,82.592,85.848" style="stroke:#A80036;stroke-width:0.8000000000000002;"/><!--MD5=[7baa6e11470f52481ce332f84aa72101]
reverse link FromQuery to SelectQueryBuilder--><path d="M209.392,191.4 C163.376,219.16 98.08,267.416 70.4,330.4 C53.008,369.976 75.552,410 105.976,442.256 " fill="none" id="FromQuery-backto-SelectQueryBuilder" style="stroke:#A80036;stroke-width:0.8000000000000002;stroke-dasharray:7.0,7.0;"/><polygon fill="none" points="206.648,186.52,223.288,183.288,212.296,196.192,206.648,186.52" style="stroke:#A80036;stroke-width:0.8000000000000002;"/><!--MD5=[44e68106d1f4cefdfc21156b3336b5f5]
reverse link LimitQuery to SelectQueryBuilder--><path d="M137.288,389.36 C144.576,404.848 153.52,423.864 162.144,442.216 " fill="none" id="LimitQuery-backto-SelectQueryBuilder" style="stroke:#A80036;stroke-width:0.8000000000000002;stroke-dasharray:7.0,7.0;"/><polygon fill="none" points="132.12,391.536,130.384,374.672,142.256,386.768,132.12,391.536" style="stroke:#A80036;stroke-width:0.8000000000000002;"/><!--MD5=[1b50a9a3938d7e4a03fb74dfd5e3ae72]
reverse link OrderByQuery to SelectQueryBuilder--><path d="M311.344,386.472 C296.312,402.448 277.256,422.712 258.912,442.216 " fill="none" id="OrderByQuery-backto-SelectQueryBuilder" style="stroke:#A80036;stroke-width:0.8000000000000002;stroke-dasharray:7.0,7.0;"/><polygon fill="none" points="307.392,382.488,322.44,374.672,315.552,390.16,307.392,382.488" style="stroke:#A80036;stroke-width:0.8000000000000002;"/><!--MD5=[838a55e86296c36abf37b4fd83f0a96f]
reverse link WhereQuery to SelectQueryBuilder--><path d="M219.92,390.344 C216.68,405.648 212.736,424.256 208.936,442.216 " fill="none" id="WhereQuery-backto-SelectQueryBuilder" style="stroke:#A80036;stroke-width:0.8000000000000002;stroke-dasharray:7.0,7.0;"/><polygon fill="none" points="214.448,389.168,223.24,374.672,225.408,391.488,214.448,389.168" style="stroke:#A80036;stroke-width:0.8000000000000002;"/><!--MD5=[04e85092e9c31471b826136f73546ddb]
reverse link WhereCommand to WhereQuery--><path d="M761.48,97.504 C752.584,103.072 743.304,108.656 734.4,113.6 C646.632,162.352 371.696,288.568 267.64,336.008 " fill="none" id="WhereCommand-backto-WhereQuery" style="stroke:#A80036;stroke-width:0.8000000000000002;"/><polygon fill="none" points="758.52,92.744,775.016,88.848,764.552,102.184,758.52,92.744" style="stroke:#A80036;stroke-width:0.8000000000000002;"/><!--MD5=[ecee577db33c82db7c422294964a4b55]
reverse link OrderByCommand to WhereQuery--><path d="M479.216,105.816 C414.68,169.472 292.96,289.536 246.184,335.68 " fill="none" id="OrderByCommand-backto-WhereQuery" style="stroke:#A80036;stroke-width:0.8000000000000002;"/><polygon fill="none" points="475.432,101.68,490.76,94.432,483.304,109.656,475.432,101.68" style="stroke:#A80036;stroke-width:0.8000000000000002;"/><!--MD5=[557d88bdc17a56dc08dc9c3010e17c67]
reverse link LimitCommand to WhereQuery--><path d="M909.96,98.592 C902.344,103.968 894.312,109.2 886.4,113.6 C708.376,212.584 653.24,217.192 460,281.6 C382.344,307.488 359.6,303.168 282.4,330.4 C277.568,332.104 272.568,334.032 267.632,336.04 " fill="none" id="LimitCommand-backto-WhereQuery" style="stroke:#A80036;stroke-width:0.8000000000000002;"/><polygon fill="none" points="906.888,93.896,923.08,88.896,913.536,102.904,906.888,93.896" style="stroke:#A80036;stroke-width:0.8000000000000002;"/><!--MD5=[2bd19c886501d77272f5320e6056959d]
reverse link SqlQuery to WhereQuery--><path d="M217.128,297.816 C216.704,311.08 217.32,325.184 218.992,336 " fill="none" id="SqlQuery-backto-WhereQuery" style="stroke:#A80036;stroke-width:0.8000000000000002;"/><polygon fill="none" points="211.552,297.352,218.232,281.776,222.72,298.12,211.552,297.352" style="stroke:#A80036;stroke-width:0.8000000000000002;"/><!--MD5=[6721f28f7bd0a91a2dacfd0a42388501]
link WhereQuery to SqlQuery--><path codeLine="64" d="M235.888,336 C238.208,321.824 238.616,301.984 237.12,285.808 " fill="none" id="WhereQuery-to-SqlQuery" style="stroke:#A80036;stroke-width:0.8000000000000002;"/><polygon fill="#A80036" points="236.696,281.776,234.2752,289.274,237.1189,285.7536,240.6393,288.5973,236.696,281.776" style="stroke:#A80036;stroke-width:0.8000000000000002;"/><!--MD5=[5bea0c1099c63c80e1f895ab26fa22b6]
link SqlBuilder to SelectQueryBuilder--><path codeLine="59" d="M449.88,380.016 C418.016,396.328 374.096,418.816 331.656,440.536 " fill="none" id="SqlBuilder-to-SelectQueryBuilder" style="stroke:#A80036;stroke-width:0.8000000000000002;stroke-dasharray:7.0,7.0;"/><polygon fill="#A80036" points="328.08,442.368,335.9463,441.9197,331.6369,440.5381,333.0185,436.2287,328.08,442.368" style="stroke:#A80036;stroke-width:0.8000000000000002;"/><text fill="#000000" font-family="sans-serif" font-size="10.4" lengthAdjust="spacing" textLength="45.6" x="399.2" y="415.5961">«creates»</text><!--MD5=[96c6e0191b512c95f795e116094416ca]
link FromQuery to WhereQuery--><path codeLine="66" d="M267.24,183.384 C276.2,206.76 288.128,247.896 277.6,281.6 C271.688,300.536 258.92,318.88 247.72,332.424 " fill="none" id="FromQuery-to-WhereQuery" style="stroke:#A80036;stroke-width:0.8000000000000002;"/><polygon fill="#A80036" points="244.912,335.76,251.9999,332.3188,247.4907,332.7021,247.1073,328.1929,244.912,335.76" style="stroke:#A80036;stroke-width:0.8000000000000002;"/><!--MD5=[dc31ba903c88b772371abc211f310e86]
link SelectQuery to FromQuery--><path codeLine="67" d="M190.912,88.872 C205.712,104.984 225.024,126 239.336,141.576 " fill="none" id="SelectQuery-to-FromQuery" style="stroke:#A80036;stroke-width:0.8000000000000002;"/><polygon fill="#A80036" points="242.128,144.616,239.6138,137.1488,239.422,141.6702,234.9006,141.4784,242.128,144.616" style="stroke:#A80036;stroke-width:0.8000000000000002;"/><!--MD5=[d93fc184e809f450c9fa6573d1c0aa74]
@startuml


'https://plantuml.com/class-diagram

package commands {

    interface WhereCommand<T> {
       +where(condition: String): T
    }

    interface LimitCommand<T>{
        +limit(limit: Integer): T
    }

    interface OrderByCommand<T> {
        +orderBy(columns: String): T
        +orderBy((columns: String, order: Order): T
    }
    OrderByCommand -+ Order : <<has>>

    enum Order {
        ASC,
        DESC
    }
}

package select {
    interface FromQuery extends WhereCommand, OrderByCommand, LimitCommand, SqlQuery
    interface LimitQuery extends SqlQuery
    interface OrderByQuery extends LimitCommand
    interface SelectQuery {
        +from(table: String): FromQuery
    }

    class SelectQueryBuilder implements SelectQuery, FromQuery, LimitQuery, OrderByQuery, WhereQuery {
        -builder: StringBuilder{readOnly}
        -hasWhere: Boolean
        +SelectQueryBuilder(columns: String...)
        +from(table: String): FromQuery <<override>>
        +build(): String <<override>>
        +limit(limit: Integer): LimitQuery <<override>>
        +orderBy(column: String): OrderByQuery <<override>>
        +orderBy(column: String, order: Order): OrderByQuery <<override>>
        +where(condition: String): WhereQuery <<override>>
    }

    interface WhereQuery extends WhereCommand, OrderByCommand, LimitCommand, SqlQuery

}
interface SqlQuery {
    +build(): String
}

class SqlBuilder{
    {static}+select(columns: String...): SelectQuery
}


SqlBuilder ..> SelectQueryBuilder: <<creates>>



'Relation je suis pas sur'
WhereQuery - -> SqlQuery
FromQuery - -> SqlQuery
FromQuery - -> WhereQuery
SelectQuery - -> FromQuery

@enduml

@startuml



package commands {

    interface WhereCommand<T> {
       +where(condition: String): T
    }

    interface LimitCommand<T>{
        +limit(limit: Integer): T
    }

    interface OrderByCommand<T> {
        +orderBy(columns: String): T
        +orderBy((columns: String, order: Order): T
    }
    OrderByCommand -+ Order : <<has>>

    enum Order {
        ASC,
        DESC
    }
}

package select {
    interface FromQuery extends WhereCommand, OrderByCommand, LimitCommand, SqlQuery
    interface LimitQuery extends SqlQuery
    interface OrderByQuery extends LimitCommand
    interface SelectQuery {
        +from(table: String): FromQuery
    }

    class SelectQueryBuilder implements SelectQuery, FromQuery, LimitQuery, OrderByQuery, WhereQuery {
        -builder: StringBuilder{readOnly}
        -hasWhere: Boolean
        +SelectQueryBuilder(columns: String...)
        +from(table: String): FromQuery <<override>>
        +build(): String <<override>>
        +limit(limit: Integer): LimitQuery <<override>>
        +orderBy(column: String): OrderByQuery <<override>>
        +orderBy(column: String, order: Order): OrderByQuery <<override>>
        +where(condition: String): WhereQuery <<override>>
    }

    interface WhereQuery extends WhereCommand, OrderByCommand, LimitCommand, SqlQuery

}
interface SqlQuery {
    +build(): String
}

class SqlBuilder{
    {static}+select(columns: String...): SelectQuery
}


SqlBuilder ..> SelectQueryBuilder: <<creates>>



WhereQuery - -> SqlQuery
FromQuery - -> SqlQuery
FromQuery - -> WhereQuery
SelectQuery - -> FromQuery

@enduml

PlantUML version 1.2022.1(Tue Feb 01 13:19:58 EST 2022)
(GPL source distribution)
Java Runtime: OpenJDK Runtime Environment
JVM: OpenJDK 64-Bit Server VM
Default Encoding: Cp1252
Language: fr
Country: FR
--></g></svg>