<?xml version="1.0" encoding="UTF-8" standalone="no"?><svg xmlns="http://www.w3.org/2000/svg" xmlns:xlink="http://www.w3.org/1999/xlink" contentScriptType="application/ecmascript" contentStyleType="text/css" height="501px" preserveAspectRatio="none" style="width:1774px;height:501px;background:#FFFFFF;" version="1.1" viewBox="0 0 1774 501" width="1774px" zoomAndPan="magnify"><defs><filter height="300%" id="fnkvig7ai4451" width="300%" x="-1" y="-1"><feGaussianBlur result="blurOut" stdDeviation="2.0"/><feColorMatrix in="blurOut" result="blurOut2" type="matrix" values="0 0 0 0 0 0 0 0 0 0 0 0 0 0 0 0 0 0 .4 0"/><feOffset dx="4.0" dy="4.0" in="blurOut2" result="blurOut3"/><feBlend in="SourceGraphic" in2="blurOut3" mode="normal"/></filter></defs><g><!--MD5=[82e865073170c2da8a76a939041dabe8]
cluster commands--><polygon fill="#FFFFFF" filter="url(#fnkvig7ai4451)" points="1006,317.5,1087,317.5,1094,341.1094,1757,341.1094,1757,445.5,1006,445.5,1006,317.5" style="stroke:#000000;stroke-width:1.5;"/><line style="stroke:#000000;stroke-width:1.5;" x1="1006" x2="1094" y1="341.1094" y2="341.1094"/><text fill="#000000" font-family="sans-serif" font-size="14" font-weight="bold" lengthAdjust="spacing" textLength="75" x="1010" y="334.0332">commands</text><!--MD5=[662be95c8683717ba8d307de7235e698]
cluster select--><polygon fill="#FFFFFF" filter="url(#fnkvig7ai4451)" points="238,6,287,6,294,29.6094,982,29.6094,982,494,238,494,238,6" style="stroke:#000000;stroke-width:1.5;"/><line style="stroke:#000000;stroke-width:1.5;" x1="238" x2="294" y1="29.6094" y2="29.6094"/><text fill="#000000" font-family="sans-serif" font-size="14" font-weight="bold" lengthAdjust="spacing" textLength="43" x="242" y="22.5332">select</text><!--MD5=[dae5f736ee9e5b1414b2f590e4402a0b]
class WhereCommand--><rect codeLine="7" fill="#FEFECE" filter="url(#fnkvig7ai4451)" height="61.8359" id="WhereCommand" style="stroke:#A80036;stroke-width:1.5;" width="155" x="1186.5" y="360.5"/><ellipse cx="1209.15" cy="376.5" fill="#B4A7E5" rx="11" ry="11" style="stroke:#A80036;stroke-width:1.0;"/><path d="M1210.15,373.5 L1210.15,379.5 L1212.15,379.5 L1212.6344,379.5 L1213.15,380.125 L1213.15,380.5 L1213.15,380.875 L1212.6344,381.5 L1212.15,381.5 L1206.15,381.5 L1205.6656,381.5 L1205.15,380.875 L1205.15,380.5 L1205.15,380.125 L1205.6656,379.5 L1206.15,379.5 L1208.15,379.5 L1208.15,373.5 L1206.15,373.5 L1205.6656,373.5 L1205.15,372.875 L1205.15,372.5 L1205.15,372.125 L1205.6656,371.5 L1206.15,371.5 L1212.15,371.5 L1212.6344,371.5 L1213.15,372.125 L1213.15,372.5 L1213.15,372.875 L1212.6344,373.5 L1212.15,373.5 L1210.15,373.5 Z " fill="#000000"/><text fill="#000000" font-family="sans-serif" font-size="12" font-style="italic" lengthAdjust="spacing" textLength="95" x="1224.85" y="381.4102">WhereCommand</text><rect fill="#FFFFFF" height="17.0938" style="stroke:#000000;stroke-width:1.0;stroke-dasharray:2.0,2.0;" width="9" x="1335.5" y="357.5"/><text fill="#000000" font-family="sans-serif" font-size="12" font-style="italic" lengthAdjust="spacing" textLength="7" x="1336.5" y="370.957">T</text><line style="stroke:#A80036;stroke-width:1.5;" x1="1187.5" x2="1340.5" y1="392.5" y2="392.5"/><line style="stroke:#A80036;stroke-width:1.5;" x1="1187.5" x2="1340.5" y1="400.5" y2="400.5"/><ellipse cx="1197.5" cy="411.5" fill="#84BE84" rx="3" ry="3" style="stroke:#038048;stroke-width:1.0;"/><text fill="#000000" font-family="sans-serif" font-size="11" lengthAdjust="spacing" textLength="129" x="1206.5" y="415.9189">where(condition: String): T</text><!--MD5=[f3eaf387f3560fa02d15c3c687f1bd0e]
class LimitCommand--><rect codeLine="11" fill="#FEFECE" filter="url(#fnkvig7ai4451)" height="61.8359" id="LimitCommand" style="stroke:#A80036;stroke-width:1.5;" width="129" x="1022.5" y="360.5"/><ellipse cx="1037.5" cy="376.5" fill="#B4A7E5" rx="11" ry="11" style="stroke:#A80036;stroke-width:1.0;"/><path d="M1038.5,373.5 L1038.5,379.5 L1040.5,379.5 L1040.9844,379.5 L1041.5,380.125 L1041.5,380.5 L1041.5,380.875 L1040.9844,381.5 L1040.5,381.5 L1034.5,381.5 L1034.0156,381.5 L1033.5,380.875 L1033.5,380.5 L1033.5,380.125 L1034.0156,379.5 L1034.5,379.5 L1036.5,379.5 L1036.5,373.5 L1034.5,373.5 L1034.0156,373.5 L1033.5,372.875 L1033.5,372.5 L1033.5,372.125 L1034.0156,371.5 L1034.5,371.5 L1040.5,371.5 L1040.9844,371.5 L1041.5,372.125 L1041.5,372.5 L1041.5,372.875 L1040.9844,373.5 L1040.5,373.5 L1038.5,373.5 Z " fill="#000000"/><text fill="#000000" font-family="sans-serif" font-size="12" font-style="italic" lengthAdjust="spacing" textLength="86" x="1051.5" y="381.4102">LimitCommand</text><rect fill="#FFFFFF" height="17.0938" style="stroke:#000000;stroke-width:1.0;stroke-dasharray:2.0,2.0;" width="9" x="1145.5" y="357.5"/><text fill="#000000" font-family="sans-serif" font-size="12" font-style="italic" lengthAdjust="spacing" textLength="7" x="1146.5" y="370.957">T</text><line style="stroke:#A80036;stroke-width:1.5;" x1="1023.5" x2="1150.5" y1="392.5" y2="392.5"/><line style="stroke:#A80036;stroke-width:1.5;" x1="1023.5" x2="1150.5" y1="400.5" y2="400.5"/><ellipse cx="1033.5" cy="411.5" fill="#84BE84" rx="3" ry="3" style="stroke:#038048;stroke-width:1.0;"/><text fill="#000000" font-family="sans-serif" font-size="11" lengthAdjust="spacing" textLength="93" x="1042.5" y="415.9189">limit(limit: Integer): T</text><!--MD5=[23f2bb0a3fcac3974b259a18e4526c65]
class OrderByCommand--><rect codeLine="15" fill="#FEFECE" filter="url(#fnkvig7ai4451)" height="75.6719" id="OrderByCommand" style="stroke:#A80036;stroke-width:1.5;" width="229" x="1511.5" y="353.5"/><ellipse cx="1564.25" cy="369.5" fill="#B4A7E5" rx="11" ry="11" style="stroke:#A80036;stroke-width:1.0;"/><path d="M1565.25,366.5 L1565.25,372.5 L1567.25,372.5 L1567.7344,372.5 L1568.25,373.125 L1568.25,373.5 L1568.25,373.875 L1567.7344,374.5 L1567.25,374.5 L1561.25,374.5 L1560.7656,374.5 L1560.25,373.875 L1560.25,373.5 L1560.25,373.125 L1560.7656,372.5 L1561.25,372.5 L1563.25,372.5 L1563.25,366.5 L1561.25,366.5 L1560.7656,366.5 L1560.25,365.875 L1560.25,365.5 L1560.25,365.125 L1560.7656,364.5 L1561.25,364.5 L1567.25,364.5 L1567.7344,364.5 L1568.25,365.125 L1568.25,365.5 L1568.25,365.875 L1567.7344,366.5 L1567.25,366.5 L1565.25,366.5 Z " fill="#000000"/><text fill="#000000" font-family="sans-serif" font-size="12" font-style="italic" lengthAdjust="spacing" textLength="104" x="1584.75" y="374.4102">OrderByCommand</text><rect fill="#FFFFFF" height="17.0938" style="stroke:#000000;stroke-width:1.0;stroke-dasharray:2.0,2.0;" width="9" x="1734.5" y="350.5"/><text fill="#000000" font-family="sans-serif" font-size="12" font-style="italic" lengthAdjust="spacing" textLength="7" x="1735.5" y="363.957">T</text><line style="stroke:#A80036;stroke-width:1.5;" x1="1512.5" x2="1739.5" y1="385.5" y2="385.5"/><line style="stroke:#A80036;stroke-width:1.5;" x1="1512.5" x2="1739.5" y1="393.5" y2="393.5"/><ellipse cx="1522.5" cy="404.5" fill="#84BE84" rx="3" ry="3" style="stroke:#038048;stroke-width:1.0;"/><text fill="#000000" font-family="sans-serif" font-size="11" lengthAdjust="spacing" textLength="133" x="1531.5" y="408.9189">orderBy(columns: String): T</text><ellipse cx="1522.5" cy="418.3359" fill="#84BE84" rx="3" ry="3" style="stroke:#038048;stroke-width:1.0;"/><text fill="#000000" font-family="sans-serif" font-size="11" lengthAdjust="spacing" textLength="203" x="1531.5" y="422.7549">orderBy((columns: String, order: Order): T</text><!--MD5=[cf4d6237fcae255cd2e1656cf84a30e2]
class Order--><rect codeLine="21" fill="#FEFECE" filter="url(#fnkvig7ai4451)" height="75.6719" id="Order" style="stroke:#A80036;stroke-width:1.5;" width="63" x="1376.5" y="353.5"/><ellipse cx="1391.5" cy="369.5" fill="#EB937F" rx="11" ry="11" style="stroke:#A80036;stroke-width:1.0;"/><path d="M1390,370.5 L1390,372.5 L1394,372.5 L1394,371.5 L1394,371.0156 L1394.625,370.5 L1395,370.5 L1395.375,370.5 L1396,371.0156 L1396,371.5 L1396,374.5 L1388,374.5 L1387.5156,374.5 L1387,373.875 L1387,373.5 L1387,373.125 L1387.5156,372.5 L1388,372.5 L1388,372.5 L1388,366.5 L1388,366.5 L1387.5156,366.5 L1387,365.875 L1387,365.5 L1387,365.125 L1387.5156,364.5 L1388,364.5 L1396,364.5 L1396,367.5 L1396,367.9844 L1395.375,368.5 L1395,368.5 L1394.625,368.5 L1394,367.9844 L1394,367.5 L1394,366.5 L1390,366.5 L1390,368.5 L1391,368.5 L1391,368.0156 L1391,368.0156 L1391.625,367.5 L1392,367.5 L1392.375,367.5 L1393,368.0156 L1393,368.5 L1393,370.5 L1393,370.9844 L1392.375,371.5 L1392.375,371.5 L1392,371.5 L1391.625,371.5 L1391,370.9844 L1391,370.9844 L1391,370.5 L1390,370.5 Z " fill="#000000"/><text fill="#000000" font-family="sans-serif" font-size="12" lengthAdjust="spacing" textLength="31" x="1405.5" y="374.4102">Order</text><line style="stroke:#A80036;stroke-width:1.5;" x1="1377.5" x2="1438.5" y1="385.5" y2="385.5"/><text fill="#000000" font-family="sans-serif" font-size="11" lengthAdjust="spacing" textLength="25" x="1382.5" y="400.9189">ASC,</text><text fill="#000000" font-family="sans-serif" font-size="11" lengthAdjust="spacing" textLength="27" x="1382.5" y="414.7549">DESC</text><line style="stroke:#A80036;stroke-width:1.5;" x1="1377.5" x2="1438.5" y1="421.1719" y2="421.1719"/><!--MD5=[8319fef28745a37d69513ce2a56d0fd0]
class SelectQueryBuilder--><rect codeLine="28" fill="#FEFECE" filter="url(#fnkvig7ai4451)" height="172.5234" id="SelectQueryBuilder" style="stroke:#A80036;stroke-width:1.5;" width="339" x="308.5" y="305"/><ellipse cx="421.25" cy="321" fill="#ADD1B2" rx="11" ry="11" style="stroke:#A80036;stroke-width:1.0;"/><path d="M423.25,317.5 Q423.4531,317 423.6875,316.75 Q423.9219,316.5 424.1875,316.5 Q424.6563,316.5 424.9531,316.7813 Q425.25,317.0625 425.25,317.7188 L425.25,319.2813 Q425.25,319.9375 424.9688,320.2188 Q424.6875,320.5 424.25,320.5 Q423.8594,320.5 423.6094,320.3281 Q423.3594,320.1563 423.25,319.7031 Q423.2031,319.3906 423.0313,319.2188 Q422.7188,318.8906 422.1563,318.7031 Q421.5938,318.5 421.0313,318.5 Q420.3281,318.5 419.7344,318.7813 Q419.1563,319.0625 418.7031,319.6875 Q418.25,320.3125 418.25,321.1719 L418.25,322.0938 Q418.25,323.125 419.0938,323.8125 Q419.9375,324.5 421.4375,324.5 Q422.3281,324.5 422.9531,324.2969 Q423.3125,324.1875 423.7188,323.8281 Q423.9844,323.625 424.125,323.5625 Q424.2656,323.5 424.4375,323.5 Q424.7656,323.5 425,323.7656 Q425.25,324.0156 425.25,324.375 Q425.25,324.7188 424.9063,325.125 Q424.4063,325.7188 423.6094,326.0469 Q422.5625,326.5 421.2813,326.5 Q419.7813,326.5 418.5781,325.9063 Q417.6094,325.4375 416.9219,324.4219 Q416.25,323.4063 416.25,322.2031 L416.25,321.1094 Q416.25,319.8594 416.8438,318.7656 Q417.4531,317.6719 418.5,317.0938 Q419.5625,316.5 420.75,316.5 Q421.4688,316.5 422.0938,316.75 Q422.7188,317 423.25,317.5 Z " fill="#000000"/><text fill="#000000" font-family="sans-serif" font-size="12" lengthAdjust="spacing" textLength="105" x="441.75" y="325.9102">SelectQueryBuilder</text><line style="stroke:#A80036;stroke-width:1.5;" x1="309.5" x2="646.5" y1="337" y2="337"/><rect fill="none" height="6" style="stroke:#C82930;stroke-width:1.0;" width="6" x="316.5" y="345"/><text fill="#000000" font-family="sans-serif" font-size="11" lengthAdjust="spacing" textLength="154" x="328.5" y="352.4189">builder: StringBuilder {readOnly}</text><rect fill="none" height="6" style="stroke:#C82930;stroke-width:1.0;" width="6" x="316.5" y="358.8359"/><text fill="#000000" font-family="sans-serif" font-size="11" lengthAdjust="spacing" textLength="95" x="328.5" y="366.2549">hasWhere: Boolean</text><line style="stroke:#A80036;stroke-width:1.5;" x1="309.5" x2="646.5" y1="372.6719" y2="372.6719"/><ellipse cx="319.5" cy="383.6719" fill="#84BE84" rx="3" ry="3" style="stroke:#038048;stroke-width:1.0;"/><text fill="#000000" font-family="sans-serif" font-size="11" lengthAdjust="spacing" textLength="184" x="328.5" y="388.0908">SelectQueryBuilder(columns: String...)</text><ellipse cx="319.5" cy="397.5078" fill="#84BE84" rx="3" ry="3" style="stroke:#038048;stroke-width:1.0;"/><text fill="#000000" font-family="sans-serif" font-size="11" lengthAdjust="spacing" textLength="202" x="328.5" y="401.9268">from(table: String): FromQuery «override»</text><ellipse cx="319.5" cy="411.3438" fill="#84BE84" rx="3" ry="3" style="stroke:#038048;stroke-width:1.0;"/><text fill="#000000" font-family="sans-serif" font-size="11" lengthAdjust="spacing" textLength="119" x="328.5" y="415.7627">build(): String «override»</text><ellipse cx="319.5" cy="425.1797" fill="#84BE84" rx="3" ry="3" style="stroke:#038048;stroke-width:1.0;"/><text fill="#000000" font-family="sans-serif" font-size="11" lengthAdjust="spacing" textLength="193" x="328.5" y="429.5986">limit(limit: Integer): LimitQuery «override»</text><ellipse cx="319.5" cy="439.0156" fill="#84BE84" rx="3" ry="3" style="stroke:#038048;stroke-width:1.0;"/><text fill="#000000" font-family="sans-serif" font-size="11" lengthAdjust="spacing" textLength="247" x="328.5" y="443.4346">orderBy(column: String): OrderByQuery «override»</text><ellipse cx="319.5" cy="452.8516" fill="#84BE84" rx="3" ry="3" style="stroke:#038048;stroke-width:1.0;"/><text fill="#000000" font-family="sans-serif" font-size="11" lengthAdjust="spacing" textLength="313" x="328.5" y="457.2705">orderBy(column: String, order: Order): OrderByQuery «override»</text><ellipse cx="319.5" cy="466.6875" fill="#84BE84" rx="3" ry="3" style="stroke:#038048;stroke-width:1.0;"/><text fill="#000000" font-family="sans-serif" font-size="11" lengthAdjust="spacing" textLength="240" x="328.5" y="471.1064">where(condition: String): WhereQuery «override»</text><!--MD5=[d20b284c4665a10287baf4da791f1117]
class SelectQuery--><rect codeLine="40" fill="#FEFECE" filter="url(#fnkvig7ai4451)" height="61.8359" id="SelectQuery" style="stroke:#A80036;stroke-width:1.5;" width="173" x="381.5" y="165"/><ellipse cx="430.25" cy="181" fill="#B4A7E5" rx="11" ry="11" style="stroke:#A80036;stroke-width:1.0;"/><path d="M431.25,178 L431.25,184 L433.25,184 L433.7344,184 L434.25,184.625 L434.25,185 L434.25,185.375 L433.7344,186 L433.25,186 L427.25,186 L426.7656,186 L426.25,185.375 L426.25,185 L426.25,184.625 L426.7656,184 L427.25,184 L429.25,184 L429.25,178 L427.25,178 L426.7656,178 L426.25,177.375 L426.25,177 L426.25,176.625 L426.7656,176 L427.25,176 L433.25,176 L433.7344,176 L434.25,176.625 L434.25,177 L434.25,177.375 L433.7344,178 L433.25,178 L431.25,178 Z " fill="#000000"/><text fill="#000000" font-family="sans-serif" font-size="12" font-style="italic" lengthAdjust="spacing" textLength="67" x="450.75" y="185.9102">SelectQuery</text><line style="stroke:#A80036;stroke-width:1.5;" x1="382.5" x2="553.5" y1="197" y2="197"/><line style="stroke:#A80036;stroke-width:1.5;" x1="382.5" x2="553.5" y1="205" y2="205"/><ellipse cx="392.5" cy="216" fill="#84BE84" rx="3" ry="3" style="stroke:#038048;stroke-width:1.0;"/><text fill="#000000" font-family="sans-serif" font-size="11" lengthAdjust="spacing" textLength="147" x="401.5" y="220.4189">from(table: String): FromQuery</text><!--MD5=[69d9f00317153276d57e7ba856e4716d]
class FromQuery--><rect codeLine="44" fill="#FEFECE" filter="url(#fnkvig7ai4451)" height="48" id="FromQuery" style="stroke:#A80036;stroke-width:1.5;" width="94" x="735" y="172"/><ellipse cx="750" cy="188" fill="#B4A7E5" rx="11" ry="11" style="stroke:#A80036;stroke-width:1.0;"/><path d="M751,185 L751,191 L753,191 L753.4844,191 L754,191.625 L754,192 L754,192.375 L753.4844,193 L753,193 L747,193 L746.5156,193 L746,192.375 L746,192 L746,191.625 L746.5156,191 L747,191 L749,191 L749,185 L747,185 L746.5156,185 L746,184.375 L746,184 L746,183.625 L746.5156,183 L747,183 L753,183 L753.4844,183 L754,183.625 L754,184 L754,184.375 L753.4844,185 L753,185 L751,185 Z " fill="#000000"/><text fill="#000000" font-family="sans-serif" font-size="12" font-style="italic" lengthAdjust="spacing" textLength="62" x="764" y="192.9102">FromQuery</text><line style="stroke:#A80036;stroke-width:1.5;" x1="736" x2="828" y1="204" y2="204"/><line style="stroke:#A80036;stroke-width:1.5;" x1="736" x2="828" y1="212" y2="212"/><!--MD5=[558660f5a8827b97e346c9f15de2ea51]
class LimitQuery--><rect codeLine="57" fill="#FEFECE" filter="url(#fnkvig7ai4451)" height="48" id="LimitQuery" style="stroke:#A80036;stroke-width:1.5;" width="92" x="254" y="172"/><ellipse cx="269" cy="188" fill="#B4A7E5" rx="11" ry="11" style="stroke:#A80036;stroke-width:1.0;"/><path d="M270,185 L270,191 L272,191 L272.4844,191 L273,191.625 L273,192 L273,192.375 L272.4844,193 L272,193 L266,193 L265.5156,193 L265,192.375 L265,192 L265,191.625 L265.5156,191 L266,191 L268,191 L268,185 L266,185 L265.5156,185 L265,184.375 L265,184 L265,183.625 L265.5156,183 L266,183 L272,183 L272.4844,183 L273,183.625 L273,184 L273,184.375 L272.4844,185 L272,185 L270,185 Z " fill="#000000"/><text fill="#000000" font-family="sans-serif" font-size="12" font-style="italic" lengthAdjust="spacing" textLength="60" x="283" y="192.9102">LimitQuery</text><line style="stroke:#A80036;stroke-width:1.5;" x1="255" x2="345" y1="204" y2="204"/><line style="stroke:#A80036;stroke-width:1.5;" x1="255" x2="345" y1="212" y2="212"/><!--MD5=[77e1057b3a39a3e2cf291031ebe1d460]
class OrderByQuery--><rect codeLine="54" fill="#FEFECE" filter="url(#fnkvig7ai4451)" height="48" id="OrderByQuery" style="stroke:#A80036;stroke-width:1.5;" width="110" x="590" y="172"/><ellipse cx="605" cy="188" fill="#B4A7E5" rx="11" ry="11" style="stroke:#A80036;stroke-width:1.0;"/><path d="M606,185 L606,191 L608,191 L608.4844,191 L609,191.625 L609,192 L609,192.375 L608.4844,193 L608,193 L602,193 L601.5156,193 L601,192.375 L601,192 L601,191.625 L601.5156,191 L602,191 L604,191 L604,185 L602,185 L601.5156,185 L601,184.375 L601,184 L601,183.625 L601.5156,183 L602,183 L608,183 L608.4844,183 L609,183.625 L609,184 L609,184.375 L608.4844,185 L608,185 L606,185 Z " fill="#000000"/><text fill="#000000" font-family="sans-serif" font-size="12" font-style="italic" lengthAdjust="spacing" textLength="78" x="619" y="192.9102">OrderByQuery</text><line style="stroke:#A80036;stroke-width:1.5;" x1="591" x2="699" y1="204" y2="204"/><line style="stroke:#A80036;stroke-width:1.5;" x1="591" x2="699" y1="212" y2="212"/><!--MD5=[bcfdaaaebfca1ae821c2ccea70848fcb]
class WhereQuery--><rect codeLine="49" fill="#FEFECE" filter="url(#fnkvig7ai4451)" height="48" id="WhereQuery" style="stroke:#A80036;stroke-width:1.5;" width="101" x="864.5" y="172"/><ellipse cx="879.5" cy="188" fill="#B4A7E5" rx="11" ry="11" style="stroke:#A80036;stroke-width:1.0;"/><path d="M880.5,185 L880.5,191 L882.5,191 L882.9844,191 L883.5,191.625 L883.5,192 L883.5,192.375 L882.9844,193 L882.5,193 L876.5,193 L876.0156,193 L875.5,192.375 L875.5,192 L875.5,191.625 L876.0156,191 L876.5,191 L878.5,191 L878.5,185 L876.5,185 L876.0156,185 L875.5,184.375 L875.5,184 L875.5,183.625 L876.0156,183 L876.5,183 L882.5,183 L882.9844,183 L883.5,183.625 L883.5,184 L883.5,184.375 L882.9844,185 L882.5,185 L880.5,185 Z " fill="#000000"/><text fill="#000000" font-family="sans-serif" font-size="12" font-style="italic" lengthAdjust="spacing" textLength="69" x="893.5" y="192.9102">WhereQuery</text><line style="stroke:#A80036;stroke-width:1.5;" x1="865.5" x2="964.5" y1="204" y2="204"/><line style="stroke:#A80036;stroke-width:1.5;" x1="865.5" x2="964.5" y1="212" y2="212"/><!--MD5=[81aaafaa421fdcc3dbd41471d1ac41da]
class SqlQuery--><rect codeLine="60" fill="#FEFECE" filter="url(#fnkvig7ai4451)" height="61.8359" id="SqlQuery" style="stroke:#A80036;stroke-width:1.5;" width="90" x="668" y="42"/><ellipse cx="686.15" cy="58" fill="#B4A7E5" rx="11" ry="11" style="stroke:#A80036;stroke-width:1.0;"/><path d="M687.15,55 L687.15,61 L689.15,61 L689.6344,61 L690.15,61.625 L690.15,62 L690.15,62.375 L689.6344,63 L689.15,63 L683.15,63 L682.6656,63 L682.15,62.375 L682.15,62 L682.15,61.625 L682.6656,61 L683.15,61 L685.15,61 L685.15,55 L683.15,55 L682.6656,55 L682.15,54.375 L682.15,54 L682.15,53.625 L682.6656,53 L683.15,53 L689.15,53 L689.6344,53 L690.15,53.625 L690.15,54 L690.15,54.375 L689.6344,55 L689.15,55 L687.15,55 Z " fill="#000000"/><text fill="#000000" font-family="sans-serif" font-size="12" font-style="italic" lengthAdjust="spacing" textLength="51" x="700.85" y="62.9102">SqlQuery</text><line style="stroke:#A80036;stroke-width:1.5;" x1="669" x2="757" y1="74" y2="74"/><line style="stroke:#A80036;stroke-width:1.5;" x1="669" x2="757" y1="82" y2="82"/><ellipse cx="679" cy="93" fill="#84BE84" rx="3" ry="3" style="stroke:#038048;stroke-width:1.0;"/><text fill="#000000" font-family="sans-serif" font-size="11" lengthAdjust="spacing" textLength="64" x="688" y="97.4189">build(): String</text><!--MD5=[73c5eb411cf4e85a2b27107eb04483d4]
class SqlBuilder--><rect codeLine="64" fill="#FEFECE" filter="url(#fnkvig7ai4451)" height="61.8359" id="SqlBuilder" style="stroke:#A80036;stroke-width:1.5;" width="212" x="7" y="165"/><ellipse cx="80.25" cy="181" fill="#ADD1B2" rx="11" ry="11" style="stroke:#A80036;stroke-width:1.0;"/><path d="M82.25,177.5 Q82.4531,177 82.6875,176.75 Q82.9219,176.5 83.1875,176.5 Q83.6563,176.5 83.9531,176.7813 Q84.25,177.0625 84.25,177.7188 L84.25,179.2813 Q84.25,179.9375 83.9688,180.2188 Q83.6875,180.5 83.25,180.5 Q82.8594,180.5 82.6094,180.3281 Q82.3594,180.1563 82.25,179.7031 Q82.2031,179.3906 82.0313,179.2188 Q81.7188,178.8906 81.1563,178.7031 Q80.5938,178.5 80.0313,178.5 Q79.3281,178.5 78.7344,178.7813 Q78.1563,179.0625 77.7031,179.6875 Q77.25,180.3125 77.25,181.1719 L77.25,182.0938 Q77.25,183.125 78.0938,183.8125 Q78.9375,184.5 80.4375,184.5 Q81.3281,184.5 81.9531,184.2969 Q82.3125,184.1875 82.7188,183.8281 Q82.9844,183.625 83.125,183.5625 Q83.2656,183.5 83.4375,183.5 Q83.7656,183.5 84,183.7656 Q84.25,184.0156 84.25,184.375 Q84.25,184.7188 83.9063,185.125 Q83.4063,185.7188 82.6094,186.0469 Q81.5625,186.5 80.2813,186.5 Q78.7813,186.5 77.5781,185.9063 Q76.6094,185.4375 75.9219,184.4219 Q75.25,183.4063 75.25,182.2031 L75.25,181.1094 Q75.25,179.8594 75.8438,178.7656 Q76.4531,177.6719 77.5,177.0938 Q78.5625,176.5 79.75,176.5 Q80.4688,176.5 81.0938,176.75 Q81.7188,177 82.25,177.5 Z " fill="#000000"/><text fill="#000000" font-family="sans-serif" font-size="12" lengthAdjust="spacing" textLength="57" x="100.75" y="185.9102">SqlBuilder</text><line style="stroke:#A80036;stroke-width:1.5;" x1="8" x2="218" y1="197" y2="197"/><line style="stroke:#A80036;stroke-width:1.5;" x1="8" x2="218" y1="205" y2="205"/><ellipse cx="18" cy="216" fill="#84BE84" rx="3" ry="3" style="stroke:#038048;stroke-width:1.0;"/><text fill="#000000" font-family="sans-serif" font-size="11" lengthAdjust="spacing" text-decoration="underline" textLength="186" x="27" y="220.4189">select(columns: String...): SelectQuery</text><!--MD5=[83957ae69d04b40a6e90f8b6ef33d0f2]
link Order to OrderByCommand--><path codeLine="19" d="M1439.7,391.5 C1455.26,391.5 1475.16,391.5 1496.13,391.5 " fill="none" id="Order-to-OrderByCommand" style="stroke:#A80036;stroke-width:1.0;"/><ellipse cx="1503.15" cy="391.5" fill="#FFFFFF" rx="8" ry="8" style="stroke:#A80036;stroke-width:1.0;"/><line style="stroke:#A80036;stroke-width:1.0;" x1="1495.15" x2="1511.15" y1="391.5" y2="391.5"/><line style="stroke:#A80036;stroke-width:1.0;" x1="1503.15" x2="1503.15" y1="383.5" y2="399.5"/><text fill="#000000" font-family="sans-serif" font-size="13" lengthAdjust="spacing" textLength="35" x="1458" y="384.9951">«has»</text><!--MD5=[10a9c1f44a282ad15b0b6e79c290c8a9]
reverse link SelectQuery to SelectQueryBuilder--><path d="M470.61,247.48 C471.52,265.06 472.56,285.3 473.58,304.92 " fill="none" id="SelectQuery-backto-SelectQueryBuilder" style="stroke:#A80036;stroke-width:1.0;stroke-dasharray:7.0,7.0;"/><polygon fill="none" points="463.6,247.57,469.56,227.23,477.59,246.85,463.6,247.57" style="stroke:#A80036;stroke-width:1.0;"/><!--MD5=[7baa6e11470f52481ce332f84aa72101]
reverse link FromQuery to SelectQueryBuilder--><path d="M718.29,226.91 C718.19,226.94 718.1,226.97 718,227 C631.1,253.2 584.21,197.12 516,257 C507.71,264.27 500.5,283.4 494.64,304.98 " fill="none" id="FromQuery-backto-SelectQueryBuilder" style="stroke:#A80036;stroke-width:1.0;stroke-dasharray:7.0,7.0;"/><polygon fill="none" points="715.65,220.42,736.84,220.13,720.46,233.57,715.65,220.42" style="stroke:#A80036;stroke-width:1.0;"/><!--MD5=[44e68106d1f4cefdfc21156b3336b5f5]
reverse link LimitQuery to SelectQueryBuilder--><path d="M335.04,235.09 C353.41,255.06 376.71,280.39 399.14,304.77 " fill="none" id="LimitQuery-backto-SelectQueryBuilder" style="stroke:#A80036;stroke-width:1.0;stroke-dasharray:7.0,7.0;"/><polygon fill="none" points="329.86,239.8,321.47,220.34,340.16,230.32,329.86,239.8" style="stroke:#A80036;stroke-width:1.0;"/><!--MD5=[1b50a9a3938d7e4a03fb74dfd5e3ae72]
reverse link OrderByQuery to SelectQueryBuilder--><path d="M571.45,227.22 C535.72,241.93 500.33,256.58 500,257 C489.19,270.62 482.8,287.51 479.16,304.66 " fill="none" id="OrderByQuery-backto-SelectQueryBuilder" style="stroke:#A80036;stroke-width:1.0;stroke-dasharray:7.0,7.0;"/><polygon fill="none" points="568.82,220.73,589.98,219.59,574.15,233.68,568.82,220.73" style="stroke:#A80036;stroke-width:1.0;"/><!--MD5=[838a55e86296c36abf37b4fd83f0a96f]
reverse link WhereQuery to SelectQueryBuilder--><path d="M848.61,226.57 C848.07,226.72 847.54,226.86 847,227 C778.53,244.84 586.46,214.35 530,257 C525.14,260.67 516.38,281.1 507.42,304.91 " fill="none" id="WhereQuery-backto-SelectQueryBuilder" style="stroke:#A80036;stroke-width:1.0;stroke-dasharray:7.0,7.0;"/><polygon fill="none" points="846.58,219.87,867.77,220.13,851.04,233.14,846.58,219.87" style="stroke:#A80036;stroke-width:1.0;"/><!--MD5=[82b6d94df1366f39f91f68647e0b1f48]
reverse link SqlQuery to FromQuery--><path d="M740.25,121.79 C750.11,139.07 760.79,157.81 768.88,172 " fill="none" id="SqlQuery-backto-FromQuery" style="stroke:#A80036;stroke-width:1.0;"/><polygon fill="none" points="734.06,125.06,730.23,104.22,746.22,118.13,734.06,125.06" style="stroke:#A80036;stroke-width:1.0;"/><!--MD5=[9d6c304d22a3c4ee87f7830f110f25e4]
link FromQuery to WhereCommand--><path codeLine="45" d="M816.01,220.06 C848.39,241.83 893.55,271.63 903,275 C1015.06,314.95 1060.49,256.21 1169,305 C1190.01,314.45 1209.6,330.29 1225.47,345.8 " fill="none" id="FromQuery-to-WhereCommand" style="stroke:#A80036;stroke-width:1.0;"/><polygon fill="none" points="1230.64,341.07,1239.47,360.33,1220.56,350.78,1230.64,341.07" style="stroke:#A80036;stroke-width:1.0;"/><text fill="#000000" font-family="sans-serif" font-size="13" lengthAdjust="spacing" textLength="150" x="904" y="271.4951">«bind»T::WhereCommand</text><!--MD5=[08e2bcd48f39184183f72b31f8792a5d]
link FromQuery to OrderByCommand--><path codeLine="46" d="M826.31,220.07 C833.1,222.83 840.13,225.28 847,227 C1064.64,281.63 1133.16,203.15 1351,257 C1401.21,269.41 1410.36,282.65 1457,305 C1482.89,317.4 1510.78,331.29 1536.29,344.21 " fill="none" id="FromQuery-to-OrderByCommand" style="stroke:#A80036;stroke-width:1.0;"/><polygon fill="none" points="1539.73,338.1,1554.38,353.41,1533.38,350.58,1539.73,338.1" style="stroke:#A80036;stroke-width:1.0;"/><text fill="#000000" font-family="sans-serif" font-size="13" lengthAdjust="spacing" textLength="160" x="1401" y="271.4951">«bind»T::OrderByCommand</text><!--MD5=[ac52898750972e1004a990cd32fb3e73]
link FromQuery to LimitCommand--><path codeLine="47" d="M747.45,220.07 C727.64,236.09 709.5,257.59 725,275 C763.23,317.95 929.04,282.62 982,305 C1004.83,314.65 1026.66,330.85 1044.45,346.57 " fill="none" id="FromQuery-to-LimitCommand" style="stroke:#A80036;stroke-width:1.0;"/><polygon fill="none" points="1049.4,341.62,1059.26,360.38,1039.86,351.86,1049.4,341.62" style="stroke:#A80036;stroke-width:1.0;"/><text fill="#000000" font-family="sans-serif" font-size="13" lengthAdjust="spacing" textLength="140" x="726" y="271.4951">«bind»T::LimitCommand</text><!--MD5=[2bd19c886501d77272f5320e6056959d]
reverse link SqlQuery to WhereQuery--><path d="M775.64,111.52 C808.63,131.28 848.04,154.89 876.51,171.95 " fill="none" id="SqlQuery-backto-WhereQuery" style="stroke:#A80036;stroke-width:1.0;"/><polygon fill="none" points="771.64,117.29,758.08,101,778.84,105.28,771.64,117.29" style="stroke:#A80036;stroke-width:1.0;"/><!--MD5=[8b90a5b402b193fff24a45f1e1345849]
link WhereQuery to WhereCommand--><path codeLine="50" d="M965.58,202.39 C1036.89,210.88 1162.3,229.28 1198,257 C1224.83,277.84 1241.51,312.45 1251.38,341.22 " fill="none" id="WhereQuery-to-WhereCommand" style="stroke:#A80036;stroke-width:1.0;"/><polygon fill="none" points="1258.09,339.22,1257.3,360.4,1244.72,343.35,1258.09,339.22" style="stroke:#A80036;stroke-width:1.0;"/><text fill="#000000" font-family="sans-serif" font-size="13" lengthAdjust="spacing" textLength="126" x="1216" y="271.4951">«bind»T::WhereQuery</text><!--MD5=[798e07a07082879d5b31626f283a91a4]
link WhereQuery to OrderByCommand--><path codeLine="51" d="M965.65,198.19 C1114.57,202.12 1543.49,216.87 1591,257 C1612.92,275.51 1621.99,305.92 1625.44,333.03 " fill="none" id="WhereQuery-to-OrderByCommand" style="stroke:#A80036;stroke-width:1.0;"/><polygon fill="none" points="1632.44,332.82,1627.11,353.33,1618.49,333.98,1632.44,332.82" style="stroke:#A80036;stroke-width:1.0;"/><text fill="#000000" font-family="sans-serif" font-size="13" lengthAdjust="spacing" textLength="136" x="1606" y="271.4951">«bind»T::OrderByQuery</text><!--MD5=[80ecf99b1f58ac66ff2b1a7ad0f49fb5]
link WhereQuery to LimitCommand--><path codeLine="52" d="M965.69,204.72 C998.36,212.4 1039.06,227.51 1063,257 C1081.77,280.13 1087.85,312.99 1089.2,340.32 " fill="none" id="WhereQuery-to-LimitCommand" style="stroke:#A80036;stroke-width:1.0;"/><polygon fill="none" points="1096.2,340.25,1089.43,360.32,1082.2,340.41,1096.2,340.25" style="stroke:#A80036;stroke-width:1.0;"/><text fill="#000000" font-family="sans-serif" font-size="13" lengthAdjust="spacing" textLength="116" x="1073" y="271.4951">«bind»T::LimitQuery</text><!--MD5=[4a70ef286bdda4bc376e6aea9b2c8e7b]
reverse link SqlQuery to OrderByQuery--><path d="M686.14,121.79 C676.43,139.07 665.9,157.81 657.93,172 " fill="none" id="SqlQuery-backto-OrderByQuery" style="stroke:#A80036;stroke-width:1.0;"/><polygon fill="none" points="680.12,118.23,696.02,104.22,692.32,125.09,680.12,118.23" style="stroke:#A80036;stroke-width:1.0;"/><!--MD5=[264b575536c9ffdf215085aa5175208b]
link OrderByQuery to LimitCommand--><path codeLine="55" d="M613.11,220.23 C594.52,236.52 577.52,258.28 593,275 C651.9,338.62 901.49,272.83 982,305 C1005.18,314.26 1027.2,330.56 1045.03,346.45 " fill="none" id="OrderByQuery-to-LimitCommand" style="stroke:#A80036;stroke-width:1.0;"/><polygon fill="none" points="1050.1,341.61,1059.84,360.42,1040.49,351.79,1050.1,341.61" style="stroke:#A80036;stroke-width:1.0;"/><text fill="#000000" font-family="sans-serif" font-size="13" lengthAdjust="spacing" textLength="116" x="594" y="271.4951">«bind»T::LimitQuery</text><!--MD5=[41f6e494c43a92c390975e7d70a4726b]
reverse link SqlQuery to LimitQuery--><path d="M648.26,87.15 C577.37,102.4 460.88,130 364,165 C358.11,167.13 352.03,169.6 346.07,172.19 " fill="none" id="SqlQuery-backto-LimitQuery" style="stroke:#A80036;stroke-width:1.0;"/><polygon fill="none" points="646.84,80.29,667.85,83,649.74,93.99,646.84,80.29" style="stroke:#A80036;stroke-width:1.0;"/><!--MD5=[5bea0c1099c63c80e1f895ab26fa22b6]
link SqlBuilder to SelectQueryBuilder--><path codeLine="68" d="M169.63,227.02 C208.02,247.37 260.89,275.4 312.03,302.51 " fill="none" id="SqlBuilder-to-SelectQueryBuilder" style="stroke:#A80036;stroke-width:1.0;stroke-dasharray:7.0,7.0;"/><polygon fill="#A80036" points="316.65,304.96,310.5652,297.2157,312.2304,302.6219,306.8242,304.2871,316.65,304.96" style="stroke:#A80036;stroke-width:1.0;"/><text fill="#000000" font-family="sans-serif" font-size="13" lengthAdjust="spacing" textLength="57" x="253" y="271.4951">«creates»</text><!--MD5=[c281191aaf33f2b377928d4e55d7ca73]
@startuml


'https://plantuml.com/class-diagram

package commands {

    interface WhereCommand<T> {
       +where(condition: String): T
    }

    interface LimitCommand<T>{
        +limit(limit: Integer): T
    }

    interface OrderByCommand<T> {
        +orderBy(columns: String): T
        +orderBy((columns: String, order: Order): T
    }
    Order -+ OrderByCommand : <<has>>

    enum Order {
        ASC,
        DESC
    }
}

package select {
    class SelectQueryBuilder implements SelectQuery, FromQuery, LimitQuery, OrderByQuery, WhereQuery {
        -builder: StringBuilder {readOnly}
        -hasWhere: Boolean
        +SelectQueryBuilder(columns: String...)
        +from(table: String): FromQuery <<override>>
        +build(): String <<override>>
        +limit(limit: Integer): LimitQuery <<override>>
        +orderBy(column: String): OrderByQuery <<override>>
        +orderBy(column: String, order: Order): OrderByQuery <<override>>
        +where(condition: String): WhereQuery <<override>>
    }

    interface SelectQuery {
        +from(table: String): FromQuery
    }

    interface FromQuery extends SqlQuery
    FromQuery - -|> WhereCommand : <<bind>>T::WhereCommand
    FromQuery - -|> OrderByCommand : <<bind>>T::OrderByCommand
    FromQuery - -|> LimitCommand : <<bind>>T::LimitCommand

    interface WhereQuery extends SqlQuery
    WhereQuery - -|> WhereCommand : <<bind>>T::WhereQuery
    WhereQuery - -|> OrderByCommand : <<bind>>T::OrderByQuery
    WhereQuery - -|> LimitCommand : <<bind>>T::LimitQuery

    interface OrderByQuery extends SqlQuery
    OrderByQuery - -|> LimitCommand : <<bind>>T::LimitQuery

    interface LimitQuery extends SqlQuery
}

interface SqlQuery {
    +build(): String
}

class SqlBuilder{
    {static}+select(columns: String...): SelectQuery
}

SqlBuilder ..> SelectQueryBuilder: <<creates>>

@enduml

@startuml



package commands {

    interface WhereCommand<T> {
       +where(condition: String): T
    }

    interface LimitCommand<T>{
        +limit(limit: Integer): T
    }

    interface OrderByCommand<T> {
        +orderBy(columns: String): T
        +orderBy((columns: String, order: Order): T
    }
    Order -+ OrderByCommand : <<has>>

    enum Order {
        ASC,
        DESC
    }
}

package select {
    class SelectQueryBuilder implements SelectQuery, FromQuery, LimitQuery, OrderByQuery, WhereQuery {
        -builder: StringBuilder {readOnly}
        -hasWhere: Boolean
        +SelectQueryBuilder(columns: String...)
        +from(table: String): FromQuery <<override>>
        +build(): String <<override>>
        +limit(limit: Integer): LimitQuery <<override>>
        +orderBy(column: String): OrderByQuery <<override>>
        +orderBy(column: String, order: Order): OrderByQuery <<override>>
        +where(condition: String): WhereQuery <<override>>
    }

    interface SelectQuery {
        +from(table: String): FromQuery
    }

    interface FromQuery extends SqlQuery
    FromQuery - -|> WhereCommand : <<bind>>T::WhereCommand
    FromQuery - -|> OrderByCommand : <<bind>>T::OrderByCommand
    FromQuery - -|> LimitCommand : <<bind>>T::LimitCommand

    interface WhereQuery extends SqlQuery
    WhereQuery - -|> WhereCommand : <<bind>>T::WhereQuery
    WhereQuery - -|> OrderByCommand : <<bind>>T::OrderByQuery
    WhereQuery - -|> LimitCommand : <<bind>>T::LimitQuery

    interface OrderByQuery extends SqlQuery
    OrderByQuery - -|> LimitCommand : <<bind>>T::LimitQuery

    interface LimitQuery extends SqlQuery
}

interface SqlQuery {
    +build(): String
}

class SqlBuilder{
    {static}+select(columns: String...): SelectQuery
}

SqlBuilder ..> SelectQueryBuilder: <<creates>>

@enduml

PlantUML version 1.2022.1(Tue Feb 01 13:19:58 EST 2022)
(GPL source distribution)
Java Runtime: OpenJDK Runtime Environment
JVM: OpenJDK 64-Bit Server VM
Default Encoding: Cp1252
Language: fr
Country: FR
--></g></svg>